<?xml version="1.0" encoding="UTF-8" standalone="no"?>
<svg
   xmlns:dc="http://purl.org/dc/elements/1.1/"
   xmlns:cc="http://creativecommons.org/ns#"
   xmlns:rdf="http://www.w3.org/1999/02/22-rdf-syntax-ns#"
   xmlns:svg="http://www.w3.org/2000/svg"
   xmlns="http://www.w3.org/2000/svg"
   xmlns:sodipodi="http://sodipodi.sourceforge.net/DTD/sodipodi-0.dtd"
   xmlns:inkscape="http://www.inkscape.org/namespaces/inkscape"
   sodipodi:docname="desenhando.svg"
   inkscape:version="1.0 (1.0+r73+1)"
   id="svg8"
   version="1.1"
   viewBox="0 0 67.378784 37.807049"
   height="37.807049mm"
   width="67.378784mm">
  <defs
     id="defs2">
    <linearGradient
       x1="0.5"
       y1="1"
       x2="0.5"
       y2="1.1442378e-17"
       id="linearGradient-1">
      <stop
         stop-color="#FFFFFF"
         offset="0%"
         id="stop1264" />
      <stop
         stop-color="#FAD961"
         offset="100%"
         id="stop1266" />
    </linearGradient>
  </defs>
  <sodipodi:namedview
     inkscape:window-maximized="1"
     inkscape:window-y="0"
     inkscape:window-x="0"
     inkscape:window-height="698"
     inkscape:window-width="1366"
     inkscape:snap-global="false"
     inkscape:guide-bbox="true"
     showguides="true"
     showgrid="false"
     inkscape:document-rotation="0"
     inkscape:current-layer="layer2"
     inkscape:document-units="mm"
     inkscape:cy="112.2778"
     inkscape:cx="-167.43398"
     inkscape:zoom="0.49497475"
     inkscape:pageshadow="2"
     inkscape:pageopacity="0.0"
     borderopacity="1.0"
     bordercolor="#666666"
     pagecolor="#ffffff"
     id="base" />
  <metadata
     id="metadata5">
    <rdf:RDF>
      <cc:Work
         rdf:about="">
        <dc:format>image/svg+xml</dc:format>
        <dc:type
           rdf:resource="http://purl.org/dc/dcmitype/StillImage" />
        <dc:title></dc:title>
      </cc:Work>
    </rdf:RDF>
  </metadata>
  <g
     transform="translate(-71.74594,-43.206838)"
     id="layer1"
     inkscape:groupmode="layer"
     inkscape:label="Layer 1" />
  <g
     transform="translate(-71.74594,-43.206838)"
     inkscape:label="Layer 2"
     id="layer2"
     inkscape:groupmode="layer">
    <g
       transform="translate(15.67861,-23.562374)"
       id="g5995">
      <g
         id="g2543"
         style="fill:#e7676a;fill-opacity:1"
         transform="translate(166.04879,2.87171)">
        <path
           d="m -109.98146,69.737609 q 0,-2.739896 1.41183,-4.286248 1.41183,-1.553859 3.64482,-1.553859 1.46225,0 2.63638,0.728137 1.17412,0.728137 1.78639,2.034279 0.619473,1.298635 0.619473,2.95008 0,1.673963 -0.648283,2.995118 -0.64829,1.321155 -1.83682,2.004252 -1.18853,0.675591 -2.56434,0.675591 -1.49106,0 -2.66518,-0.750656 -1.17413,-0.750656 -1.7792,-2.049292 -0.60507,-1.298635 -0.60507,-2.747402 z m 1.44064,0.02252 q 0,1.98924 1.02285,3.137744 1.03007,1.140997 2.57875,1.140997 1.57751,0 2.59316,-1.15601 1.02286,-1.156011 1.02286,-3.280369 0,-1.343674 -0.4394,-2.342048 -0.43219,-1.005879 -1.27497,-1.553858 -0.83557,-0.555486 -1.88004,-0.555486 -1.48385,0 -2.55714,1.065933 -1.06607,1.058425 -1.06607,3.543097 z"
           style="font-style:normal;font-variant:normal;font-weight:normal;font-stretch:normal;font-size:15.0596px;line-height:1.25;font-family:'Phetsarath OT';-inkscape-font-specification:'Phetsarath OT, Normal';font-variant-ligatures:normal;font-variant-caps:normal;font-variant-numeric:normal;font-variant-east-asian:normal;letter-spacing:0px;word-spacing:0px;fill:#e7676a;fill-opacity:1;stroke-width:0.564737"
           id="path2508" />
        <path
           d="M -98.146595,75.097295 V 64.092673 h 1.397426 v 9.705986 h 5.200715 v 1.298636 z"
           style="font-style:normal;font-variant:normal;font-weight:normal;font-stretch:normal;font-size:15.0596px;line-height:1.25;font-family:'Phetsarath OT';-inkscape-font-specification:'Phetsarath OT, Normal';font-variant-ligatures:normal;font-variant-caps:normal;font-variant-numeric:normal;font-variant-east-asian:normal;letter-spacing:0px;word-spacing:0px;fill:#e7676a;fill-opacity:1;stroke-width:0.564737"
           id="path2510" />
        <path
           d="M -89.639605,75.097295 V 64.092673 h 1.397422 v 11.004622 z"
           style="font-style:normal;font-variant:normal;font-weight:normal;font-stretch:normal;font-size:15.0596px;line-height:1.25;font-family:'Phetsarath OT';-inkscape-font-specification:'Phetsarath OT, Normal';font-variant-ligatures:normal;font-variant-caps:normal;font-variant-numeric:normal;font-variant-east-asian:normal;letter-spacing:0px;word-spacing:0px;fill:#e7676a;fill-opacity:1;stroke-width:0.564737"
           id="path2512" />
        <path
           d="m -82.767747,75.097295 -4.091421,-11.004622 h 1.512673 l 2.744421,7.99449 q 0.331348,0.96084 0.554647,1.801575 0.244909,-0.900787 0.569053,-1.801575 l 2.85247,-7.99449 h 1.426235 l -4.13464,11.004622 z"
           style="font-style:normal;font-variant:normal;font-weight:normal;font-stretch:normal;font-size:15.0596px;line-height:1.25;font-family:'Phetsarath OT';-inkscape-font-specification:'Phetsarath OT, Normal';font-variant-ligatures:normal;font-variant-caps:normal;font-variant-numeric:normal;font-variant-east-asian:normal;letter-spacing:0px;word-spacing:0px;fill:#e7676a;fill-opacity:1;stroke-width:0.564737"
           id="path2514" />
        <path
           d="M -75.903093,75.097295 V 64.092673 h 7.635398 v 1.298636 h -6.237976 v 3.370446 h 5.841799 v 1.291129 h -5.841799 v 3.745775 h 6.482885 v 1.298636 z"
           style="font-style:normal;font-variant:normal;font-weight:normal;font-stretch:normal;font-size:15.0596px;line-height:1.25;font-family:'Phetsarath OT';-inkscape-font-specification:'Phetsarath OT, Normal';font-variant-ligatures:normal;font-variant-caps:normal;font-variant-numeric:normal;font-variant-east-asian:normal;letter-spacing:0px;word-spacing:0px;fill:#e7676a;fill-opacity:1;stroke-width:0.564737"
           id="path2516" />
        <path
           d="M -65.840216,75.097295 V 64.092673 h 1.397422 v 11.004622 z"
           style="font-style:normal;font-variant:normal;font-weight:normal;font-stretch:normal;font-size:15.0596px;line-height:1.25;font-family:'Phetsarath OT';-inkscape-font-specification:'Phetsarath OT, Normal';font-variant-ligatures:normal;font-variant-caps:normal;font-variant-numeric:normal;font-variant-east-asian:normal;letter-spacing:0px;word-spacing:0px;fill:#e7676a;fill-opacity:1;stroke-width:0.564737"
           id="path2518" />
        <path
           sodipodi:nodetypes="ccscsssccccccsccsccccsccscscc"
           d="M -61.964892,75.097295 V 64.092673 l 4.28785,-0.0079 c 0.941217,-0.0017 1.656737,0.100087 2.146555,0.300262 0.489818,0.195171 0.881192,0.542975 1.174123,1.043412 0.29293,0.500438 0.439395,1.053422 0.439395,1.658951 0,0.780683 -0.242508,1.438758 -0.727524,1.974226 -0.485016,0.535469 -1.071807,0.73271 -2.085058,0.877837 0,0 0.488348,0.510878 0.680434,0.691035 0.408181,0.390341 0.794753,0.878268 1.159715,1.46378 l 1.836818,2.995119 h -1.757582 l -1.397422,-2.289502 c -0.408182,-0.660577 -0.744332,-1.166019 -1.008449,-1.516326 -0.264118,-0.350306 -0.501823,-0.59552 -0.713117,-0.735643 -0.206492,-0.140123 -0.452847,-0.252112 -0.633882,-0.292756 -0.158471,-0.03503 -0.02355,-0.04461 -0.383713,-0.04461 h -1.620721 v 4.886773 z m 1.397422,-6.147876 2.609503,-0.0079 c 0.638681,-0.0019 1.138106,-0.06756 1.498266,-0.202676 0.36016,-0.140123 0.633882,-0.360316 0.821166,-0.660579 0.187283,-0.305267 0.280925,-0.635555 0.280925,-0.990866 0,-0.520455 -0.182482,-0.948329 -0.547444,-1.283623 -0.36016,-0.335293 -0.931617,-0.505043 -1.714362,-0.502939 l -2.948054,0.0079 z"
           style="font-style:normal;font-variant:normal;font-weight:normal;font-stretch:normal;font-size:15.0596px;line-height:1.25;font-family:'Phetsarath OT';-inkscape-font-specification:'Phetsarath OT, Normal';font-variant-ligatures:normal;font-variant-caps:normal;font-variant-numeric:normal;font-variant-east-asian:normal;letter-spacing:0px;word-spacing:0px;fill:#e7676a;fill-opacity:1;stroke-width:0.564737"
           id="path2520" />
        <path
           sodipodi:nodetypes="ccccccccccccccc"
           d="m -52.485472,75.097295 4.055405,-11.004622 h 1.50547 l 4.321923,11.004622 h -1.591908 l -0.942155,-2.500214 h -4.907656 l -0.957218,2.500214 z m 2.844458,-3.68625 h 4.072085 l -1.391684,-3.880366 c -0.33615,-0.925809 -0.585861,-1.686475 -0.749134,-2.281996 -0.13446,0.705618 -0.324144,1.406231 -0.569053,2.101838 z"
           style="font-style:normal;font-variant:normal;font-weight:normal;font-stretch:normal;font-size:15.0596px;line-height:1.25;font-family:'Phetsarath OT';-inkscape-font-specification:'Phetsarath OT, Normal';font-variant-ligatures:normal;font-variant-caps:normal;font-variant-numeric:normal;font-variant-east-asian:normal;letter-spacing:0px;word-spacing:0px;fill:#e7676a;fill-opacity:1;stroke-width:0.564737"
           id="path2522" />
      </g>
      <text
         xml:space="preserve"
         style="font-style:normal;font-variant:normal;font-weight:normal;font-stretch:normal;font-size:7.11942px;line-height:1.25;font-family:Laksaman;-inkscape-font-specification:'Laksaman, Normal';font-variant-ligatures:normal;font-variant-caps:normal;font-variant-numeric:normal;font-variant-east-asian:normal;letter-spacing:3.63963px;word-spacing:0px;fill:#000000;fill-opacity:1;stroke:none;stroke-width:0.167;stroke-miterlimit:4;stroke-dasharray:none;stroke-opacity:1"
         x="58.995441"
         y="83.959671"
         id="text2547"
         transform="scale(0.96309601,1.0383181)"><tspan
           sodipodi:role="line"
           id="tspan2545"
           x="58.995441"
           y="83.959671"
           style="font-style:normal;font-variant:normal;font-weight:normal;font-stretch:normal;font-size:7.11942px;font-family:Laksaman;-inkscape-font-specification:'Laksaman, Normal';font-variant-ligatures:normal;font-variant-caps:normal;font-variant-numeric:normal;font-variant-east-asian:normal;fill:#000000;fill-opacity:1;stroke:none;stroke-width:0.167;stroke-miterlimit:4;stroke-dasharray:none;stroke-opacity:1">vegan food</tspan></text>
      <path
         style="fill:#e6e6e6;stroke:#99e071;stroke-width:0.8;stroke-linecap:round;stroke-linejoin:miter;stroke-miterlimit:4;stroke-dasharray:none;stroke-opacity:1"
         d="m 89.822435,90.031219 c 0.72857,1.155361 5.1361,4.826139 5.88836,6.893791 1.27198,3.7485 -3.21278,6.49087 -5.89165,3.23633"
         id="path2562"
         sodipodi:nodetypes="ccc" />
      <path
         sodipodi:nodetypes="ccc"
         id="path2564"
         d="m 89.691015,90.06833 c -0.72858,1.155361 -5.13611,4.826139 -5.88837,6.893791 -1.27197,3.748499 3.21278,6.490869 5.89165,3.236329"
         style="fill:#e6e6e6;stroke:#99e071;stroke-width:0.8;stroke-linecap:round;stroke-linejoin:miter;stroke-miterlimit:4;stroke-dasharray:none;stroke-opacity:1" />
      <path
         style="fill:none;stroke:#99e071;stroke-width:0.8;stroke-linecap:round;stroke-linejoin:miter;stroke-miterlimit:4;stroke-dasharray:none;stroke-opacity:1"
         d="M 89.771795,89.709957 V 104.17626"
         id="path2566" />
      <path
         style="fill:#e6e6e6;stroke:#99e071;stroke-width:0.8;stroke-linecap:round;stroke-linejoin:miter;stroke-miterlimit:4;stroke-dasharray:none;stroke-opacity:1"
         d="m 89.775035,97.356895 2.26435,-2.469841"
         id="path2573" />
      <path
         id="path2575"
         d="m 89.775035,97.356895 -2.26435,-2.469841"
         style="fill:#e6e6e6;stroke:#99e071;stroke-width:0.8;stroke-linecap:round;stroke-linejoin:miter;stroke-miterlimit:4;stroke-dasharray:none;stroke-opacity:1" />
      <path
         style="fill:#e6e6e6;stroke:#99e071;stroke-width:0.8;stroke-linecap:round;stroke-linejoin:miter;stroke-miterlimit:4;stroke-dasharray:none;stroke-opacity:1"
         d="m 89.819145,100.19845 3.73534,-3.828869"
         id="path2577" />
      <path
         id="path2579"
         d="m 89.694295,100.19845 -3.73533,-3.828869"
         style="fill:#e6e6e6;stroke:#99e071;stroke-width:0.8;stroke-linecap:round;stroke-linejoin:miter;stroke-miterlimit:4;stroke-dasharray:none;stroke-opacity:1" />
    </g>
  </g>
</svg>
