<?xml version="1.0" encoding="UTF-8" standalone="no"?>
<svg
   xmlns:dc="http://purl.org/dc/elements/1.1/"
   xmlns:cc="http://creativecommons.org/ns#"
   xmlns:rdf="http://www.w3.org/1999/02/22-rdf-syntax-ns#"
   xmlns:svg="http://www.w3.org/2000/svg"
   xmlns="http://www.w3.org/2000/svg"
   xmlns:sodipodi="http://sodipodi.sourceforge.net/DTD/sodipodi-0.dtd"
   xmlns:inkscape="http://www.inkscape.org/namespaces/inkscape"
   sodipodi:docname="oliveiralogo.svg"
   inkscape:version="1.0 (1.0+r73+1)"
   id="svg8"
   version="1.1"
   viewBox="0 0 67.378784 37.807049"
   height="37.807049mm"
   width="67.378784mm">
  <defs
     id="defs2">
    <linearGradient
       x1="0.5"
       y1="1"
       x2="0.5"
       y2="1.1442378e-17"
       id="linearGradient-1">
      <stop
         stop-color="#FFFFFF"
         offset="0%"
         id="stop1264" />
      <stop
         stop-color="#FAD961"
         offset="100%"
         id="stop1266" />
    </linearGradient>
  </defs>
  <sodipodi:namedview
     inkscape:window-maximized="1"
     inkscape:window-y="0"
     inkscape:window-x="0"
     inkscape:window-height="698"
     inkscape:window-width="1366"
     inkscape:snap-global="false"
     inkscape:guide-bbox="true"
     showguides="true"
     showgrid="false"
     inkscape:document-rotation="0"
     inkscape:current-layer="layer2"
     inkscape:document-units="mm"
     inkscape:cy="76.900021"
     inkscape:cx="167.33644"
     inkscape:zoom="1.979899"
     inkscape:pageshadow="2"
     inkscape:pageopacity="0.0"
     borderopacity="1.0"
     bordercolor="#666666"
     pagecolor="#ffffff"
     id="base" />
  <metadata
     id="metadata5">
    <rdf:RDF>
      <cc:Work
         rdf:about="">
        <dc:format>image/svg+xml</dc:format>
        <dc:type
           rdf:resource="http://purl.org/dc/dcmitype/StillImage" />
        <dc:title />
      </cc:Work>
    </rdf:RDF>
  </metadata>
  <g
     transform="translate(-71.74594,-43.206838)"
     id="layer1"
     inkscape:groupmode="layer"
     inkscape:label="Layer 1" />
  <g
     transform="translate(-71.74594,-43.206838)"
     inkscape:label="Layer 2"
     id="layer2"
     inkscape:groupmode="layer">
    <g
       id="g140">
      <g
         id="g2543"
         style="fill:#e7676a;fill-opacity:1"
         transform="translate(181.7274,-20.690664)">
        <path
           d="m -109.98146,69.737609 q 0,-2.739896 1.41183,-4.286248 1.41183,-1.553859 3.64482,-1.553859 1.46225,0 2.63638,0.728137 1.17412,0.728137 1.78639,2.034279 0.619473,1.298635 0.619473,2.95008 0,1.673963 -0.648283,2.995118 -0.64829,1.321155 -1.83682,2.004252 -1.18853,0.675591 -2.56434,0.675591 -1.49106,0 -2.66518,-0.750656 -1.17413,-0.750656 -1.7792,-2.049292 -0.60507,-1.298635 -0.60507,-2.747402 z m 1.44064,0.02252 q 0,1.98924 1.02285,3.137744 1.03007,1.140997 2.57875,1.140997 1.57751,0 2.59316,-1.15601 1.02286,-1.156011 1.02286,-3.280369 0,-1.343674 -0.4394,-2.342048 -0.43219,-1.005879 -1.27497,-1.553858 -0.83557,-0.555486 -1.88004,-0.555486 -1.48385,0 -2.55714,1.065933 -1.06607,1.058425 -1.06607,3.543097 z"
           style="font-style:normal;font-variant:normal;font-weight:normal;font-stretch:normal;font-size:15.0596px;line-height:1.25;font-family:'Phetsarath OT';-inkscape-font-specification:'Phetsarath OT, Normal';font-variant-ligatures:normal;font-variant-caps:normal;font-variant-numeric:normal;font-variant-east-asian:normal;letter-spacing:0px;word-spacing:0px;fill:#e7676a;fill-opacity:1;stroke-width:0.564737"
           id="path2508" />
        <path
           d="M -98.146595,75.097295 V 64.092673 h 1.397426 v 9.705986 h 5.200715 v 1.298636 z"
           style="font-style:normal;font-variant:normal;font-weight:normal;font-stretch:normal;font-size:15.0596px;line-height:1.25;font-family:'Phetsarath OT';-inkscape-font-specification:'Phetsarath OT, Normal';font-variant-ligatures:normal;font-variant-caps:normal;font-variant-numeric:normal;font-variant-east-asian:normal;letter-spacing:0px;word-spacing:0px;fill:#e7676a;fill-opacity:1;stroke-width:0.564737"
           id="path2510" />
        <path
           d="M -89.639605,75.097295 V 64.092673 h 1.397422 v 11.004622 z"
           style="font-style:normal;font-variant:normal;font-weight:normal;font-stretch:normal;font-size:15.0596px;line-height:1.25;font-family:'Phetsarath OT';-inkscape-font-specification:'Phetsarath OT, Normal';font-variant-ligatures:normal;font-variant-caps:normal;font-variant-numeric:normal;font-variant-east-asian:normal;letter-spacing:0px;word-spacing:0px;fill:#e7676a;fill-opacity:1;stroke-width:0.564737"
           id="path2512" />
        <path
           d="m -82.767747,75.097295 -4.091421,-11.004622 h 1.512673 l 2.744421,7.99449 q 0.331348,0.96084 0.554647,1.801575 0.244909,-0.900787 0.569053,-1.801575 l 2.85247,-7.99449 h 1.426235 l -4.13464,11.004622 z"
           style="font-style:normal;font-variant:normal;font-weight:normal;font-stretch:normal;font-size:15.0596px;line-height:1.25;font-family:'Phetsarath OT';-inkscape-font-specification:'Phetsarath OT, Normal';font-variant-ligatures:normal;font-variant-caps:normal;font-variant-numeric:normal;font-variant-east-asian:normal;letter-spacing:0px;word-spacing:0px;fill:#e7676a;fill-opacity:1;stroke-width:0.564737"
           id="path2514" />
        <path
           d="M -75.903093,75.097295 V 64.092673 h 7.635398 v 1.298636 h -6.237976 v 3.370446 h 5.841799 v 1.291129 h -5.841799 v 3.745775 h 6.482885 v 1.298636 z"
           style="font-style:normal;font-variant:normal;font-weight:normal;font-stretch:normal;font-size:15.0596px;line-height:1.25;font-family:'Phetsarath OT';-inkscape-font-specification:'Phetsarath OT, Normal';font-variant-ligatures:normal;font-variant-caps:normal;font-variant-numeric:normal;font-variant-east-asian:normal;letter-spacing:0px;word-spacing:0px;fill:#e7676a;fill-opacity:1;stroke-width:0.564737"
           id="path2516" />
        <path
           d="M -65.840216,75.097295 V 64.092673 h 1.397422 v 11.004622 z"
           style="font-style:normal;font-variant:normal;font-weight:normal;font-stretch:normal;font-size:15.0596px;line-height:1.25;font-family:'Phetsarath OT';-inkscape-font-specification:'Phetsarath OT, Normal';font-variant-ligatures:normal;font-variant-caps:normal;font-variant-numeric:normal;font-variant-east-asian:normal;letter-spacing:0px;word-spacing:0px;fill:#e7676a;fill-opacity:1;stroke-width:0.564737"
           id="path2518" />
        <path
           sodipodi:nodetypes="ccscsssccccccsccsccccsccscscc"
           d="M -61.964892,75.097295 V 64.092673 l 4.28785,-0.0079 c 0.941217,-0.0017 1.656737,0.100087 2.146555,0.300262 0.489818,0.195171 0.881192,0.542975 1.174123,1.043412 0.29293,0.500438 0.439395,1.053422 0.439395,1.658951 0,0.780683 -0.242508,1.438758 -0.727524,1.974226 -0.485016,0.535469 -1.071807,0.73271 -2.085058,0.877837 0,0 0.488348,0.510878 0.680434,0.691035 0.408181,0.390341 0.794753,0.878268 1.159715,1.46378 l 1.836818,2.995119 h -1.757582 l -1.397422,-2.289502 c -0.408182,-0.660577 -0.744332,-1.166019 -1.008449,-1.516326 -0.264118,-0.350306 -0.501823,-0.59552 -0.713117,-0.735643 -0.206492,-0.140123 -0.452847,-0.252112 -0.633882,-0.292756 -0.158471,-0.03503 -0.02355,-0.04461 -0.383713,-0.04461 h -1.620721 v 4.886773 z m 1.397422,-6.147876 2.609503,-0.0079 c 0.638681,-0.0019 1.138106,-0.06756 1.498266,-0.202676 0.36016,-0.140123 0.633882,-0.360316 0.821166,-0.660579 0.187283,-0.305267 0.280925,-0.635555 0.280925,-0.990866 0,-0.520455 -0.182482,-0.948329 -0.547444,-1.283623 -0.36016,-0.335293 -0.931617,-0.505043 -1.714362,-0.502939 l -2.948054,0.0079 z"
           style="font-style:normal;font-variant:normal;font-weight:normal;font-stretch:normal;font-size:15.0596px;line-height:1.25;font-family:'Phetsarath OT';-inkscape-font-specification:'Phetsarath OT, Normal';font-variant-ligatures:normal;font-variant-caps:normal;font-variant-numeric:normal;font-variant-east-asian:normal;letter-spacing:0px;word-spacing:0px;fill:#e7676a;fill-opacity:1;stroke-width:0.564737"
           id="path2520" />
        <path
           sodipodi:nodetypes="ccccccccccccccc"
           d="m -52.485472,75.097295 4.055405,-11.004622 h 1.50547 l 4.321923,11.004622 h -1.591908 l -0.942155,-2.500214 h -4.907656 l -0.957218,2.500214 z m 2.844458,-3.68625 h 4.072085 l -1.391684,-3.880366 c -0.33615,-0.925809 -0.585861,-1.686475 -0.749134,-2.281996 -0.13446,0.705618 -0.324144,1.406231 -0.569053,2.101838 z"
           style="font-style:normal;font-variant:normal;font-weight:normal;font-stretch:normal;font-size:15.0596px;line-height:1.25;font-family:'Phetsarath OT';-inkscape-font-specification:'Phetsarath OT, Normal';font-variant-ligatures:normal;font-variant-caps:normal;font-variant-numeric:normal;font-variant-east-asian:normal;letter-spacing:0px;word-spacing:0px;fill:#e7676a;fill-opacity:1;stroke-width:0.564737"
           id="path2522" />
      </g>
      <g
         aria-label="vegan food"
         transform="scale(0.963096,1.0383181)"
         id="text2547"
         style="font-style:normal;font-variant:normal;font-weight:normal;font-stretch:normal;font-size:7.11942px;line-height:1.25;font-family:Laksaman;-inkscape-font-specification:'Laksaman, Normal';font-variant-ligatures:normal;font-variant-caps:normal;font-variant-numeric:normal;font-variant-east-asian:normal;letter-spacing:3.63963px;word-spacing:0px;fill:#000000;fill-opacity:1;stroke:none;stroke-width:0.167;stroke-miterlimit:4;stroke-dasharray:none;stroke-opacity:1">
        <path
           d="m 78.891491,57.628818 -1.637466,3.638024 h -0.37021 l -1.573392,-3.638024 h 0.427165 l 1.345571,3.1895 1.381167,-3.1895 z"
           style="font-style:normal;font-variant:normal;font-weight:normal;font-stretch:normal;font-size:7.11942px;font-family:Laksaman;-inkscape-font-specification:'Laksaman, Normal';font-variant-ligatures:normal;font-variant-caps:normal;font-variant-numeric:normal;font-variant-east-asian:normal;fill:#000000;fill-opacity:1;stroke:none;stroke-width:0.167;stroke-miterlimit:4;stroke-dasharray:none;stroke-opacity:1"
           id="path95" />
        <path
           d="m 83.276659,59.479867 q 0.02136,0.690584 0.412926,1.11063 0.398687,0.420046 1.060794,0.420046 0.619389,0 1.274376,-0.256299 l 0.0356,0.348851 q -0.633629,0.263419 -1.35269,0.263419 -0.818733,0 -1.338451,-0.505479 -0.519718,-0.512598 -0.519718,-1.317093 0,-0.86145 0.49836,-1.423884 0.505479,-0.569553 1.317092,-0.569553 1.530676,0 1.566273,1.929362 z m 2.527394,-0.355971 q -0.01424,-0.555314 -0.341732,-0.882808 -0.320374,-0.334612 -0.847211,-0.334612 -0.526838,0 -0.882809,0.348851 -0.355971,0.341732 -0.434284,0.868569 z"
           style="font-style:normal;font-variant:normal;font-weight:normal;font-stretch:normal;font-size:7.11942px;font-family:Laksaman;-inkscape-font-specification:'Laksaman, Normal';font-variant-ligatures:normal;font-variant-caps:normal;font-variant-numeric:normal;font-variant-east-asian:normal;fill:#000000;fill-opacity:1;stroke:none;stroke-width:0.167;stroke-miterlimit:4;stroke-dasharray:none;stroke-opacity:1"
           id="path97" />
        <path
           d="m 91.853606,62.605293 q 0.36309,0 0.605151,-0.177986 0.24206,-0.170866 0.24206,-0.48412 0,-0.256299 -0.192224,-0.441404 -0.185105,-0.177986 -0.605151,-0.313255 -0.24918,-0.07831 -0.398688,-0.135269 -0.142388,-0.05695 -0.320374,-0.156627 -0.170866,-0.09967 -0.256299,-0.234941 -0.08543,-0.142388 -0.08543,-0.320374 0,-0.192224 0.113911,-0.548195 -0.37021,-0.434285 -0.37021,-0.875689 0,-0.548195 0.348852,-0.918405 0.355971,-0.37021 0.875688,-0.37021 h 1.423884 v 0.37733 l -0.49124,-0.04984 q 0.405807,0.412926 0.405807,0.882808 0,0.576673 -0.36309,0.946883 -0.36309,0.36309 -0.925525,0.36309 -0.320374,0 -0.533956,-0.106791 -0.05696,0.142388 -0.05696,0.299015 0,0.284777 0.825853,0.519718 1.032316,0.291896 1.032316,1.053674 0,0.505479 -0.36309,0.776017 -0.355971,0.270538 -0.946883,0.270538 -0.576673,0 -1.039435,-0.284777 l 0.149507,-0.341732 q 0.462763,0.270538 0.925525,0.270538 z m 0,-2.812171 q 0.37021,0 0.619389,-0.24918 0.24918,-0.256299 0.24918,-0.647867 0,-0.37021 -0.263418,-0.640748 -0.256299,-0.270538 -0.605151,-0.270538 -0.36309,0 -0.605151,0.270538 -0.234941,0.270538 -0.234941,0.647867 0,0.37021 0.24918,0.633629 0.24918,0.256299 0.590912,0.256299 z"
           style="font-style:normal;font-variant:normal;font-weight:normal;font-stretch:normal;font-size:7.11942px;font-family:Laksaman;-inkscape-font-specification:'Laksaman, Normal';font-variant-ligatures:normal;font-variant-caps:normal;font-variant-numeric:normal;font-variant-east-asian:normal;fill:#000000;fill-opacity:1;stroke:none;stroke-width:0.167;stroke-miterlimit:4;stroke-dasharray:none;stroke-opacity:1"
           id="path99" />
        <path
           d="m 98.602977,61.366514 q -0.484121,0 -0.825853,-0.277658 -0.334613,-0.284776 -0.334613,-0.7333 0,-1.359809 2.420603,-1.359809 0,-0.519718 -0.249179,-0.804495 -0.24918,-0.284776 -0.733301,-0.284776 -0.391568,0 -1.160465,0.24206 l -0.04984,-0.405807 q 0.598031,-0.192224 1.238779,-0.192224 1.381168,0 1.381168,1.523556 v 1.302853 q 0,0.448524 0.12815,0.889928 l -0.37021,0.07831 -0.149509,-0.590912 q -0.49124,0.61227 -1.295734,0.61227 z m -0.7333,-1.082152 q 0,0.334613 0.206463,0.533956 0.206463,0.192225 0.541076,0.192225 0.427165,0 0.832972,-0.263419 0.412926,-0.270538 0.412926,-0.654986 v -0.74042 q -1.993437,0 -1.993437,0.932644 z"
           style="font-style:normal;font-variant:normal;font-weight:normal;font-stretch:normal;font-size:7.11942px;font-family:Laksaman;-inkscape-font-specification:'Laksaman, Normal';font-variant-ligatures:normal;font-variant-caps:normal;font-variant-numeric:normal;font-variant-east-asian:normal;fill:#000000;fill-opacity:1;stroke:none;stroke-width:0.167;stroke-miterlimit:4;stroke-dasharray:none;stroke-opacity:1"
           id="path101" />
        <path
           d="m 108.10601,61.266842 h -0.42717 V 59.20221 q 0,-1.295734 -1.08215,-1.295734 -0.42717,0 -0.77602,0.36309 -0.34885,0.36309 -0.34885,0.790256 v 2.20702 h -0.42717 v -2.740977 q 0,-0.320374 -0.0712,-0.897047 h 0.39869 q 0.0712,0.220702 0.0854,0.647867 0.41293,-0.72618 1.22454,-0.72618 1.42389,0 1.42389,1.651705 z"
           style="font-style:normal;font-variant:normal;font-weight:normal;font-stretch:normal;font-size:7.11942px;font-family:Laksaman;-inkscape-font-specification:'Laksaman, Normal';font-variant-ligatures:normal;font-variant-caps:normal;font-variant-numeric:normal;font-variant-east-asian:normal;fill:#000000;fill-opacity:1;stroke:none;stroke-width:0.167;stroke-miterlimit:4;stroke-dasharray:none;stroke-opacity:1"
           id="path103" />
        <path
           d="m 120.83274,55.941516 -0.12103,0.306135 q -0.24206,-0.12103 -0.52684,-0.12103 -0.84721,0 -0.84721,1.359809 v 0.142388 h 1.03943 v 0.320374 h -1.03943 v 3.31765 h -0.42717 v -3.31765 h -0.60515 v -0.320374 h 0.61939 V 57.48643 q 0,-1.71578 1.29574,-1.71578 0.4058,0 0.61227,0.170866 z"
           style="font-style:normal;font-variant:normal;font-weight:normal;font-stretch:normal;font-size:7.11942px;font-family:Laksaman;-inkscape-font-specification:'Laksaman, Normal';font-variant-ligatures:normal;font-variant-caps:normal;font-variant-numeric:normal;font-variant-east-asian:normal;fill:#000000;fill-opacity:1;stroke:none;stroke-width:0.167;stroke-miterlimit:4;stroke-dasharray:none;stroke-opacity:1"
           id="path105" />
        <path
           d="m 128.05054,59.458509 q 0,0.811614 -0.51972,1.359809 -0.5126,0.548196 -1.31709,0.548196 -0.81162,0 -1.32421,-0.541076 -0.5126,-0.548195 -0.5126,-1.366929 0,-0.811614 0.51972,-1.359809 0.51971,-0.548195 1.31709,-0.548195 0.80449,0 1.31709,0.548195 0.51972,0.548195 0.51972,1.359809 z m -1.83681,1.552034 q 0.61939,0 1.01096,-0.448524 0.39868,-0.448523 0.39868,-1.10351 0,-0.654986 -0.39156,-1.10351 -0.39157,-0.448523 -1.01808,-0.448523 -0.61939,0 -1.01808,0.448523 -0.39157,0.448524 -0.39157,1.10351 0,0.654987 0.39157,1.10351 0.39869,0.448524 1.01808,0.448524 z"
           style="font-style:normal;font-variant:normal;font-weight:normal;font-stretch:normal;font-size:7.11942px;font-family:Laksaman;-inkscape-font-specification:'Laksaman, Normal';font-variant-ligatures:normal;font-variant-caps:normal;font-variant-numeric:normal;font-variant-east-asian:normal;fill:#000000;fill-opacity:1;stroke:none;stroke-width:0.167;stroke-miterlimit:4;stroke-dasharray:none;stroke-opacity:1"
           id="path107" />
        <path
           d="m 135.94514,59.458509 q 0,0.811614 -0.51972,1.359809 -0.5126,0.548196 -1.3171,0.548196 -0.81161,0 -1.32421,-0.541076 -0.5126,-0.548195 -0.5126,-1.366929 0,-0.811614 0.51972,-1.359809 0.51972,-0.548195 1.31709,-0.548195 0.8045,0 1.3171,0.548195 0.51972,0.548195 0.51972,1.359809 z m -1.83682,1.552034 q 0.61939,0 1.01096,-0.448524 0.39869,-0.448523 0.39869,-1.10351 0,-0.654986 -0.39157,-1.10351 -0.39157,-0.448523 -1.01808,-0.448523 -0.61938,0 -1.01807,0.448523 -0.39157,0.448524 -0.39157,1.10351 0,0.654987 0.39157,1.10351 0.39869,0.448524 1.01807,0.448524 z"
           style="font-style:normal;font-variant:normal;font-weight:normal;font-stretch:normal;font-size:7.11942px;font-family:Laksaman;-inkscape-font-specification:'Laksaman, Normal';font-variant-ligatures:normal;font-variant-caps:normal;font-variant-numeric:normal;font-variant-east-asian:normal;fill:#000000;fill-opacity:1;stroke:none;stroke-width:0.167;stroke-miterlimit:4;stroke-dasharray:none;stroke-opacity:1"
           id="path109" />
        <path
           d="m 140.17323,59.401554 q 0,-0.797375 0.4414,-1.324212 0.44853,-0.526837 1.19607,-0.526837 0.90416,0 1.37404,0.768897 v -2.463319 h 0.42717 v 4.520831 q 0,0.640748 0.0285,0.889928 h -0.39157 q -0.0214,-0.277657 -0.0214,-0.640748 -0.50548,0.74042 -1.35269,0.74042 -0.79737,0 -1.25302,-0.548196 -0.44852,-0.555314 -0.44852,-1.416764 z m 1.7585,1.608989 q 0.52683,0 0.88992,-0.341732 0.36309,-0.348852 0.36309,-0.86145 V 59.20221 q 0,-0.548195 -0.37732,-0.918405 -0.37021,-0.377329 -0.91841,-0.377329 -0.61939,0 -0.954,0.420045 -0.33461,0.420046 -0.33461,1.089272 0,1.59475 1.33133,1.59475 z"
           style="font-style:normal;font-variant:normal;font-weight:normal;font-stretch:normal;font-size:7.11942px;font-family:Laksaman;-inkscape-font-specification:'Laksaman, Normal';font-variant-ligatures:normal;font-variant-caps:normal;font-variant-numeric:normal;font-variant-east-asian:normal;fill:#000000;fill-opacity:1;stroke:none;stroke-width:0.167;stroke-miterlimit:4;stroke-dasharray:none;stroke-opacity:1"
           id="path111" />
      </g>
      <path
         style="fill:none;stroke:#99e071;stroke-width:0.8;stroke-linecap:round;stroke-linejoin:miter;stroke-miterlimit:4;stroke-dasharray:none;stroke-opacity:1"
         d="m 105.50105,66.468845 c 0.72857,1.155361 5.1361,4.826139 5.88836,6.893791 1.27198,3.7485 -3.21278,6.49087 -5.89165,3.23633"
         id="path2562"
         sodipodi:nodetypes="ccc" />
      <path
         sodipodi:nodetypes="ccc"
         id="path2564"
         d="m 105.36963,66.505956 c -0.72858,1.155361 -5.13612,4.826139 -5.888375,6.893791 -1.27197,3.748499 3.212785,6.490869 5.891655,3.236329"
         style="fill:none;stroke:#99e071;stroke-width:0.8;stroke-linecap:round;stroke-linejoin:miter;stroke-miterlimit:4;stroke-dasharray:none;stroke-opacity:1" />
      <path
         style="fill:none;stroke:#99e071;stroke-width:0.8;stroke-linecap:round;stroke-linejoin:miter;stroke-miterlimit:4;stroke-dasharray:none;stroke-opacity:1"
         d="M 105.45041,66.147583 V 80.613886"
         id="path2566" />
      <path
         style="fill:#e6e6e6;stroke:#99e071;stroke-width:0.8;stroke-linecap:round;stroke-linejoin:miter;stroke-miterlimit:4;stroke-dasharray:none;stroke-opacity:1"
         d="M 105.45365,73.794521 107.718,71.32468"
         id="path2573" />
      <path
         id="path2575"
         d="M 105.45365,73.794521 103.1893,71.32468"
         style="fill:#e6e6e6;stroke:#99e071;stroke-width:0.8;stroke-linecap:round;stroke-linejoin:miter;stroke-miterlimit:4;stroke-dasharray:none;stroke-opacity:1" />
      <path
         style="fill:#e6e6e6;stroke:#99e071;stroke-width:0.8;stroke-linecap:round;stroke-linejoin:miter;stroke-miterlimit:4;stroke-dasharray:none;stroke-opacity:1"
         d="m 105.49776,76.636076 3.73534,-3.828869"
         id="path2577" />
      <path
         id="path2579"
         d="m 105.37291,76.636076 -3.73534,-3.828869"
         style="fill:none;stroke:#99e071;stroke-width:0.8;stroke-linecap:round;stroke-linejoin:miter;stroke-miterlimit:4;stroke-dasharray:none;stroke-opacity:1" />
    </g>
  </g>
</svg>
