<?xml version="1.0" encoding="UTF-8" standalone="no"?>
<svg
   xmlns:dc="http://purl.org/dc/elements/1.1/"
   xmlns:cc="http://creativecommons.org/ns#"
   xmlns:rdf="http://www.w3.org/1999/02/22-rdf-syntax-ns#"
   xmlns:svg="http://www.w3.org/2000/svg"
   xmlns="http://www.w3.org/2000/svg"
   xmlns:sodipodi="http://sodipodi.sourceforge.net/DTD/sodipodi-0.dtd"
   xmlns:inkscape="http://www.inkscape.org/namespaces/inkscape"
   inkscape:version="1.0 (1.0+r73+1)"
   height="849.133"
   width="744.41864"
   sodipodi:docname="seatbook.svg"
   xml:space="preserve"
   viewBox="0 0 744.41865 849.133"
   y="0px"
   x="0px"
   id="Layer_1"
   version="1.1"><metadata
   id="metadata165"><rdf:RDF><cc:Work
       rdf:about=""><dc:format>image/svg+xml</dc:format><dc:type
         rdf:resource="http://purl.org/dc/dcmitype/StillImage" /><dc:title></dc:title></cc:Work></rdf:RDF></metadata><defs
   id="defs163">
	
	
	
	
	
	
	
	
	
	
	
	
	
	
	
	
	
	
	
	
	
	
	
	
	
	
	
	
	
	
		
	
	
	
	
	
	
	
	
	
	
	
	
	
	
	
	
	
	
	
	
	
	
	
	
	
</defs><sodipodi:namedview
   inkscape:current-layer="Layer_1"
   inkscape:window-maximized="1"
   inkscape:window-y="0"
   inkscape:window-x="0"
   inkscape:cy="332.37937"
   inkscape:cx="293.29619"
   inkscape:zoom="0.266"
   showgrid="false"
   id="namedview161"
   inkscape:window-height="698"
   inkscape:window-width="1366"
   inkscape:pageshadow="2"
   inkscape:pageopacity="0"
   guidetolerance="10"
   gridtolerance="10"
   objecttolerance="10"
   borderopacity="1"
   bordercolor="#666666"
   pagecolor="#ffffff" />
<style
   id="style2"
   type="text/css">
	.st0{fill:#EBDBCD;}
	.st1{fill:#110580;}
	.st2{fill:#FCB58A;}
	.st3{fill:#F8D7BC;}
	.st4{fill:#4E53BA;}
	.st5{fill:#E3996D;}
	.st6{fill:#2B31BA;}
	.st7{fill:#FF8A91;}
	.st8{fill:#F8ECE2;}
	.st9{fill:#FF5856;}
	.st10{fill:#EBD0BE;}
	.st11{fill:#E0C1A6;}
	.st12{fill:#F8D0B3;}
	.st13{fill:#FF7A82;}
	.st14{fill:#F0A173;}
	.st15{fill:#001D80;}
	.st16{fill:#FFFFFF;}
	.st17{fill:#E0E0E0;}
	.st18{fill:#FFADB2;}
	.st19{fill:#AB534D;}
	.st20{fill:#F8E7D8;}
	.st21{fill:#C7645D;}
	.st22{fill:#DEBCA7;}
	.st23{fill:#F3E9E1;}
	.st24{fill:#BFA990;}
	.st25{fill:#D4BFA9;}
	.st26{fill:#C5C6E3;}
</style>
<g
   transform="translate(-513.11037,-248.3233)"
   id="g1147"><polygon
     id="polygon4"
     points="189.5,500.3 1071.6,65.5 1279.6,853.3 277.9,817.1 "
     class="st0"
     transform="matrix(0.43252495,0,0,0.43252495,513.11034,232.40638)" /><path
     id="path6"
     d="m 862.85001,354.16215 -14.74912,109.64507 c -0.17295,1.3841 0.56234,2.81139 1.85989,3.37373 4.28196,1.85981 14.27333,5.79581 25.4757,6.35807 9.03979,0.47579 25.08647,-1.94636 34.34248,-4.75775 1.68687,-0.56226 2.81139,-2.42215 2.16266,-4.10902 v 0 L 868.99186,353.34039 c -1.12452,-3.11424 -5.70933,-2.5519 -6.14185,0.82176 z"
     class="st1"
     style="stroke-width:0.432525" /><circle
     id="circle8"
     r="64.402962"
     cy="384.87143"
     cx="912.20111"
     class="st2"
     style="stroke-width:0.432525" /><rect
     id="rect10"
     height="66.6521"
     width="88.105324"
     class="st3"
     y="880.63147"
     x="727.59949"
     style="stroke-width:0.432525" /><polygon
     id="polygon12"
     points="475.8,1486.9 475.8,1498.7 699.8,1498.7 699.8,1652.8 475.8,1652.8 475.8,1664.5 1337.2,1664.5 1337.2,1486.9 "
     class="st4"
     style="fill:#9955ff;fill-opacity:1"
     transform="matrix(0.43252495,0,0,0.43252495,513.11034,232.40638)" /><path
     id="path14"
     d="m 681.96808,836.1247 c 2.16263,13.62452 4.84428,27.16257 8.13147,40.61407 5.70934,23.70237 42.17122,13.6246 36.50508,-10.07777 -3.28718,-13.45157 -5.88227,-26.98962 -8.1314,-40.61415 -1.6004,-10.07777 -14.18687,-15.70063 -23.22663,-13.2352 -10.85637,3.07088 -14.87885,13.2352 -13.27852,23.31305 z"
     class="st5"
     style="stroke-width:0.432525" /><polygon
     id="polygon16"
     points="1566.4,984.1 1721.1,1075.8 1569.2,1163.8 "
     class="st6"
     style="fill:#b1e594;fill-opacity:1"
     transform="matrix(0.43252495,0,0,0.43252495,513.11034,232.40638)" /><path
     id="path18"
     d="m 900.60942,635.34666 c -0.38924,-0.17302 -0.73528,-0.38932 -1.12453,-0.38932 -6.27159,-1.03805 -54.41161,-9.34256 -104.4548,-18.94462 -22.31827,-4.28196 -87.28352,-22.66423 -121.23673,-9.42903 -33.9532,13.23528 -40.7006,33.1314 -43.68502,47.14524 -2.59515,12.58647 1.94637,55.44967 13.06226,98.91849 9.90482,38.92721 34.08296,88.19183 39.10025,98.18313 0.56229,1.21107 1.77336,1.94636 3.07093,2.03291 3.07093,0.17294 9.34254,0.0865 17.34427,-2.33568 7.09343,-2.16258 14.66257,-6.14185 18.12278,-8.04494 1.12452,-0.64881 1.85989,-1.85988 1.85989,-3.15743 0.17294,-10.81313 1.03805,-61.41858 -0.25958,-96.97213 -1.29754,-34.5155 -13.14873,-45.93417 -13.14873,-45.93417 0,0 40.87357,45.37191 82.61225,57.78535 33.04493,9.81836 102.29214,31.53109 130.92528,30.70933 33.21795,-0.95158 57.22309,-14.92215 67.94967,-31.83385 19.89619,-31.27159 7.56922,-77.55173 4.36851,-87.71604 -0.38924,-1.29763 -1.38402,-2.24921 -2.72484,-2.5087 -10.89968,-2.5951 -62.80267,-15.00862 -76.25417,-20.63141 -10.94288,-4.628 -14.40309,-6.31487 -15.52769,-6.87713 z"
     class="st7"
     style="stroke-width:0.432525" /><path
     id="path20"
     d="m 993.60228,620.81375 c 0,0 -0.73529,8.60728 0.0865,20.8045 0.82176,12.32698 2.72492,21.75601 2.72492,21.75601 0,0 -49.74042,-8.04501 -68.59848,-15.31139 -23.78884,-9.25601 -27.63837,-12.97578 -27.63837,-12.97578 0,0 4.49826,-9.9913 6.05538,-17.1712 1.21108,-5.3201 1.85981,-19.98267 1.85981,-19.98267 0,0 25.77856,12.24042 43.77159,16.52246 18.03623,4.28196 41.7386,6.35807 41.7386,6.35807 z"
     class="st2"
     style="stroke-width:0.432525" /><circle
     id="circle22"
     r="47.967018"
     cy="296.29031"
     cx="561.07739"
     class="st4"
     style="fill:#b1e594;fill-opacity:1;stroke-width:0.432525" /><path
     id="path24"
     d="M 936.76851,1066.7471 H 642.00278 V 959.04832 h 294.63598 c 14.66258,0 26.60031,11.85119 26.60031,26.60024 v 54.58464 c 0.12975,14.5761 -11.85118,26.5139 -26.47056,26.5139 z"
     class="st8"
     style="stroke-width:0.432525" /><path
     id="path26"
     d="M 1111.3788,952.34413 H 629.20004 c -1.85985,0 -3.37369,1.51385 -3.37369,3.37374 v 0 c 0,1.85981 1.51384,3.37365 3.37369,3.37365 h 59.16941 v 0 h 221.02027 c 29.75767,0 53.84935,24.09169 53.84935,53.84938 v 0 c 0,29.7577 -24.09168,53.8493 -53.84935,53.8493 H 636.42321 v 0 h -7.26642 c -1.85986,0 -3.37369,1.5139 -3.37369,3.3738 v 0 c 0,1.8599 1.51383,3.3736 3.37369,3.3736 h 482.26531 c 29.7578,0 53.8494,-24.0916 53.8494,-53.8493 v -13.365 c -0.043,-29.93075 -24.1349,-53.97917 -53.8927,-53.97917 z"
     class="st9"
     style="fill:#e7676a;fill-opacity:1;stroke-width:0.432525" /><path
     id="path28"
     d="M 919.77033,982.36137 H 642.00278 v -3.71969 h 277.76755 c 1.03806,0 1.85981,0.82183 1.85981,1.85988 v 0 c 0,1.03806 -0.82175,1.85981 -1.85981,1.85981 z"
     class="st10"
     style="stroke-width:0.432525" /><path
     id="path30"
     d="m 791.61316,931.40996 h -64.01367 v -3.7197 h 64.01367 c 1.03806,0 1.85989,0.82176 1.85989,1.85981 v 0 c 0,1.03806 -0.82183,1.85989 -1.85989,1.85989 z"
     class="st11"
     style="stroke-width:0.432525" /><path
     id="path32"
     d="m 776.51807,910.43251 h -48.91858 v -3.7197 h 48.83203 c 1.03805,0 1.85989,0.82176 1.85989,1.85982 v 0 c 0.0865,0.99485 -0.77856,1.85988 -1.77334,1.85988 z"
     class="st11"
     style="stroke-width:0.432525" /><path
     id="path34"
     d="M 939.92595,1024.2731 H 642.00278 v -3.7197 h 297.92317 c 1.03805,0 1.85988,0.8217 1.85988,1.8598 v 0 c 0,1.0381 -0.82183,1.8599 -1.85988,1.8599 z"
     class="st10"
     style="stroke-width:0.432525" /><path
     id="path36"
     d="M 903.24787,1047.5429 H 642.00278 v -3.7197 h 261.24509 c 1.03805,0 1.85981,0.8218 1.85981,1.8599 v 0 c 0,0.9948 -0.82176,1.8598 -1.85981,1.8598 z"
     class="st10"
     style="stroke-width:0.432525" /><path
     id="path38"
     d="M 930.9727,1003.7714 H 642.00278 v -3.7198 H 930.9727 c 1.03806,0 1.85989,0.8219 1.85989,1.8599 v 0 c 0,0.9948 -0.73536,1.8599 -1.85989,1.8599 z"
     class="st10"
     style="stroke-width:0.432525" /><path
     id="path40"
     d="M 899.31187,869.34265 H 786.03358 v -39.96534 h 113.32157 c 3.07088,0 5.57958,2.50862 5.57958,5.57959 v 28.76289 c 0,3.20071 -2.55189,5.62286 -5.62286,5.62286 z"
     class="st12"
     style="stroke-width:0.432525" /><path
     id="path42"
     d="m 1103.5501,823.32193 h -225.1292 -98.74539 -2.98449 c -1.68679,0 -3.07089,1.3841 -3.07089,3.07097 0,1.68686 1.3841,3.07096 3.07089,3.07096 h 9.34256 v 0 h 107.69871 c 6.14185,0 11.20244,5.06052 11.20244,11.20237 v 17.47397 c 0,6.14185 -5.06059,11.20245 -11.20244,11.20245 h -24.65388 v 0 h -91.73858 c -1.68687,0 -3.07089,1.38402 -3.07089,3.07089 0,1.68686 1.38402,3.07096 3.07089,3.07096 h 2.33568 99.48067 224.39392 c 6.142,0 11.2025,-5.0606 11.2025,-11.20245 v -29.88742 c 0,-6.09865 -5.0605,-11.0727 -11.2025,-11.0727 z"
     class="st13"
     style="fill:#ffd400;fill-opacity:1;stroke-width:0.432525" /><path
     id="path44"
     d="m 713.49918,578.72911 c 33.43417,-15.00862 72.05861,5.14707 105.36303,10.81313 32.65569,5.57958 68.42546,1.21107 91.08977,-25.47571 5.14707,-6.05538 5.96883,-14.92215 0,-20.89097 -5.32001,-5.32002 -15.78718,-6.14185 -20.89097,0 -21.36669,25.08646 -54.49809,20.54493 -83.17451,13.23528 -35.94287,-9.25601 -71.5829,-19.24739 -107.22295,-3.28719 -7.26642,3.28719 -9.03977,13.9273 -5.32006,20.24217 4.282,7.56914 12.88923,8.6072 20.15569,5.36329 z"
     class="st14"
     style="stroke-width:0.432525" /><path
     id="path46"
     d="m 724.22576,587.94192 c 36.28883,-11.85118 72.14516,11.59161 106.09839,21.53971 32.48259,9.51558 68.59848,8.04494 93.98764,-16.60893 13.71107,-13.23529 -7.26638,-34.25601 -20.8909,-20.89098 -22.88061,22.2318 -56.35806,12.88924 -82.69879,3.07096 -33.52072,-12.41352 -68.33891,-27.42214 -104.32506,-15.7007 -18.03626,5.92563 -10.29406,34.55877 7.82872,28.58994 z"
     class="st2"
     style="stroke-width:0.432525" /><path
     id="path48"
     d="M 878.11813,347.15527 Z"
     class="st15"
     style="stroke-width:0.432525" /><path
     id="path50"
     d="m 952.72871,476.13419 c 3.15744,0.95159 31.44454,12.32698 42.08465,50.21613 8.86674,31.27159 16.21974,77.63827 18.55534,92.86311 0.4757,2.89795 -1.5138,5.70934 -4.3685,6.2716 -8.4775,1.68687 -26.77331,4.28204 -49.82687,2.24913 -32.09335,-2.89786 -52.55181,-11.59161 -52.55181,-11.59161 l 0.82184,-7.26646 -2.89794,1.29755 c -2.24913,1.03813 -4.93078,0.38932 -6.35807,-1.60031 l -20.89098,-27.81139 c -1.3841,-1.85981 -0.73528,-4.49826 1.21108,-5.49304 l 0.25949,-0.17302 -16.9117,-20.32863 c -1.6004,-1.94637 -1.51385,-4.75783 0.38924,-6.53117 5.96882,-5.79581 18.94461,-18.85807 28.20062,-31.44454 6.70412,-9.12626 15.57089,-25.77847 21.1072,-32.17989 11.02943,-13.06219 32.87191,-10.89961 41.17641,-8.47746 z"
     class="st16"
     style="stroke-width:0.432525" /><polygon
     id="polygon52"
     points="1018.7,590.9 971,468.6 880.4,467.9 927.9,590.3 "
     class="st2"
     transform="matrix(0.43252495,0,0,0.43252495,513.11034,232.40638)" /><path
     id="path54"
     d="m 917.82397,499.57707 c 5.88228,1.38402 13.79755,-4.19549 20.45839,-7.17991 7.09343,-3.15743 15.39793,-4.49825 15.39793,-4.49825 l -39.18678,-0.25958 c -0.0432,0.0866 -2.85466,10.51037 3.33046,11.93774 z"
     class="st2"
     style="stroke-width:0.432525" /><path
     id="path56"
     d="m 904.06963,542.397 c 0,0 -3.93592,10.55363 -7.82872,16.43599 -3.93592,5.88228 -17.47397,16.21969 -17.47397,16.21969 l -5.06052,-6.05537 c 0,0 9.42903,-4.75776 16.04667,-11.20238 4.8875,-4.5848 14.31654,-15.39793 14.31654,-15.39793 z"
     class="st17"
     style="stroke-width:0.432525" /><path
     id="path58"
     d="m 907.44336,608.87609 c 0,0 12.15395,-7.1799 17.56052,-13.06226 5.40656,-5.88235 12.97571,-17.64699 12.97571,-17.64699 0,0 -8.30443,17.99304 -12.41345,25.77848 -5.70933,10.64011 -10.07785,15.39786 -10.07785,15.39786 l -8.78022,-3.07089 c 0,0 0.0865,-1.77333 0.38924,-3.4602 0.17303,-1.81661 0.34605,-3.936 0.34605,-3.936 z"
     class="st17"
     style="stroke-width:0.432525" /><path
     id="path60"
     d="m 684.56323,574.70664 c 8.47749,-5.32009 17.34426,-9.51558 26.85984,-12.5 7.91519,-2.42215 4.58473,-15.13836 -3.46021,-12.67294 -10.55363,3.28718 -20.63146,7.82864 -29.97401,13.79755 -6.96364,4.45498 -0.51902,15.83037 6.57438,11.37539 z"
     class="st14"
     style="stroke-width:0.432525" /><circle
     r="24.26482"
     id="ellipse62"
     cy="1028.8834"
     cx="11.952636"
     class="st1"
     transform="rotate(-71.566863)"
     style="stroke-width:0.432529" /><path
     id="path64"
     d="m 910.73054,404.16206 c 6.70411,2.50862 9.68853,2.42215 9.68853,2.42215 -0.82176,-4.49826 -1.68679,-9.25609 -1.68679,-9.60206 0,0 -11.20245,-3.71977 -18.68512,-11.20244 -11.20237,-11.20238 -5.57959,-22.40475 -14.92207,-31.74731 -7.74225,-7.74217 -17.56052,-11.20237 -20.80451,-12.15395 -0.0865,0.0865 -0.17302,0.0865 -0.17302,0.17302 v 0 c 0.17302,0.0865 12.02421,4.93078 19.8962,15.48441 7.91519,10.55356 0.73528,20.8909 10.25079,33.60719 5.79588,7.82864 10.55364,10.89961 16.43599,13.01899 z"
     class="st5"
     style="stroke-width:0.432525" /><path
     id="path66"
     d="m 936.76851,444.38689 c -7.56914,3.15744 -15.87365,4.84423 -24.5674,4.84423 -4.49826,0 -8.95324,-0.4758 -13.14873,-1.38403 l 5.49304,14.10032 c 1.60031,-0.17302 3.07096,-0.47579 4.67128,-0.82184 10.8996,-2.50862 20.54493,-7.82871 28.2871,-15.00862 z"
     class="st5"
     style="stroke-width:0.432525" /><path
     id="path68"
     d="m 927.59897,454.20516 c -12.80269,0 -23.22658,-10.46708 -23.22658,-23.22657 0,-12.80277 10.46717,-23.22658 23.22658,-23.22658 12.75949,0 23.22666,10.46709 23.22666,23.22658 0,12.75949 -10.42389,23.22657 -23.22666,23.22657 z m 0,-42.64698 c -10.72658,0 -19.42033,8.69383 -19.42033,19.42041 0,10.72658 8.69375,19.4204 19.42033,19.4204 10.72666,0 19.42041,-8.69382 19.42041,-19.4204 0,-10.72658 -8.69375,-19.42041 -19.42041,-19.42041 z"
     class="st16"
     style="stroke-width:0.432525" /><path
     id="path70"
     d="m 1002.7286,467.00793 c 2.5951,-0.95158 4.109,-3.7197 3.1575,-6.44462 l -30.88239,-93.42537 c -7.74217,-27.46535 -32.91511,-47.62103 -62.88907,-47.62103 -19.50688,0 -36.98093,8.60727 -49.00513,22.0155 v 0 c 0.17302,0 12.58647,3.15743 21.84256,12.49999 9.34248,9.34256 3.71969,20.54493 14.92207,31.74731 7.48267,7.48267 18.68512,11.20244 18.68512,11.20244 0,1.12453 5.49303,29.32516 9.90482,51.16771 0.95151,4.75776 1.85981,10.38054 2.5951,14.66258 0.38931,2.03283 1.77341,3.7197 3.71977,4.58473 11.28885,4.58481 24.35111,6.92041 38.2784,6.2716 10.07784,-0.51899 22.88061,-4.45499 29.67125,-6.66084 z"
     class="st1"
     style="stroke-width:0.432525" /><path
     id="path72"
     d="m 995.80821,657.10266 c 0,0 4.49829,18.29581 3.07089,18.29581 -1.3841,-0.0865 -55.44967,-10.72666 -69.42024,-13.79755 -30.88227,-6.61764 -35.64002,-27.63836 -35.64002,-27.63836 0,0 2.42207,-0.0866 5.06052,-2.03291 2.59517,-1.94636 3.54667,-2.72484 3.54667,-2.72484 0,0 4.36852,10.81305 31.27159,18.68504 37.19715,10.81313 62.11059,9.21281 62.11059,9.21281 z"
     class="st18"
     style="stroke-width:0.432525" /><path
     id="path74"
     d="m 687.63416,866.27169 c 0,0 12.32697,-0.0865 18.55529,-1.21108 6.2284,-1.12453 18.2958,-7.09335 18.2958,-7.09335 0,0 7.09343,15.70063 9.12634,19.76637 2.03284,4.10894 10.81313,14.44628 11.93766,21.19367 1.1246,6.70419 1.3841,21.84255 -24.65395,24.17815 -12.02413,1.03806 -23.44282,25.56226 -36.59158,27.3356 -6.53112,0.95158 -37.4134,4.28204 -46.19366,-0.47579 -8.69375,-4.75775 -5.96885,-17.64699 15.22487,-24.65387 21.19373,-7.00696 17.17124,-14.01385 22.23179,-23.05364 4.97403,-8.99651 12.06744,-35.98606 12.06744,-35.98606 z"
     class="st19"
     style="fill:#916f8a;stroke-width:0.432525" /><path
     id="path76"
     d="m 615.489,842.18008 c -1.85986,15.22484 -3.63321,30.32 -5.49307,45.54484 -1.21106,10.16432 9.60206,18.94462 18.9446,18.94462 11.20239,0 17.64702,-8.7803 18.94459,-18.94462 1.85986,-15.22484 3.63321,-30.32 5.49307,-45.54484 1.21106,-10.16432 -9.60206,-18.94462 -18.9446,-18.94462 -11.28889,0.0865 -17.73352,8.7803 -18.94459,18.94462 z"
     class="st2"
     style="stroke-width:0.432525" /><path
     id="path78"
     d="m 913.80143,784.438 c 27.33559,2.72492 52.63835,-4.93077 71.88566,-23.52935 19.11761,-18.55537 17.99301,-49.82688 16.91171,-62.45663 -0.8218,-9.99129 -4.19549,-26.12452 -5.49304,-32.48266 -0.38924,-1.60032 -1.60032,-2.81139 -3.15744,-3.07089 -9.81827,-1.77334 -43.94453,-7.91519 -54.15212,-11.1159 -8.30451,-2.59517 -15.70063,-5.40656 -19.33386,-6.92041 -1.38409,-0.56226 -2.98441,-0.25949 -4.10901,0.73529 -3.07089,2.81147 -10.55356,7.91526 -22.57777,6.70419 -16.43599,-1.68687 -88.66762,-24.00514 -117.12774,-32.74216 -28.4602,-8.73703 -76.25417,-29.97397 -120.50147,-15.31139 -28.20063,9.34256 -49.39436,36.28884 -49.91338,92.94958 -0.38927,43.94453 -0.47578,100.25932 0.25951,121.40978 0.56228,16.69549 -0.0865,34.34248 -0.38927,41.04659 -0.0865,1.77334 0.95155,3.28719 2.50864,3.936 2.89792,1.1246 8.04497,2.81139 15.39789,4.36851 9.12628,1.94636 20.45843,1.21108 25.47573,0.64881 1.60034,-0.17302 2.89791,-1.21107 3.37369,-2.72492 2.7249,-8.04501 11.59167,-34.73179 19.59338,-57.13653 20.06916,-56.09849 21.756,-86.24548 20.80445,-99.87007 -0.25952,-3.37366 3.4602,-5.49304 6.27161,-3.54668 13.23529,9.12626 41.73869,27.89786 73.65901,42.17119 43.72824,19.85292 106.53091,33.47745 140.61382,36.93765 z"
     class="st18"
     style="fill:#ff8080;stroke-width:0.432525" /><path
     id="path80"
     d="m 952.25292,656.84309 c 0.17302,19.6799 -5.96883,39.83559 -20.24216,53.93591 -6.44462,6.35807 -14.35981,11.37539 -23.05356,14.01376 -10.46716,3.15744 -21.45324,2.59517 -32.09334,0.95158 -39.8356,-6.35814 -76.34065,-24.74042 -112.37,-41.9117 -18.12278,-8.69374 -36.28883,-17.1712 -55.23345,-24.00513 -4.75775,-1.68679 -9.51555,-3.37366 -14.27332,-4.75776 -5.32006,-1.60031 -10.81313,-3.07088 -16.34945,-2.42215 -8.95326,0.95159 -15.87366,7.09344 -20.54493,14.35989 -4.93078,7.74217 -7.35293,17.08473 -9.34254,26.03797 -2.24913,9.90482 -3.63321,19.98267 -4.58477,30.06051 -1.38407,14.57603 -1.77335,29.10894 -3.07092,43.68496 -2.72491,28.93591 -5.96884,58.04485 -11.11589,86.72126 -0.38927,2.33568 -0.8218,4.58481 -1.29757,6.83394 -0.64879,3.15744 4.19549,4.58473 4.84428,1.29755 2.50863,-11.93766 4.19548,-24.09161 5.79582,-36.20236 2.16263,-15.70063 4.02249,-31.44454 5.70934,-47.23172 1.38407,-13.23528 2.33563,-26.42729 3.07092,-39.74904 1.03807,-19.6799 3.15743,-39.96526 9.60206,-58.78013 2.7249,-8.04494 7.35292,-16.34944 15.22488,-20.32864 9.34253,-4.75783 20.63143,0.17295 29.67118,3.37366 19.11763,6.53117 37.62973,14.92215 55.79571,23.70237 36.11589,17.17127 72.44793,35.94279 112.19697,43.29572 10.81313,1.94636 21.84256,3.37373 32.74216,1.60039 8.95332,-1.51384 17.64707,-5.32009 24.91344,-10.72666 15.78718,-11.59161 25.30269,-29.58464 28.20063,-48.83203 0.73529,-4.93077 1.1246,-9.99137 1.03805,-15.00862 -0.21621,-3.20071 -5.23354,-3.20071 -5.23354,0.0865 z"
     class="st16"
     style="stroke-width:0.432525" /><path
     id="path82"
     d="m 682.40061,584.87096 c 8.39099,-8.13149 19.4204,-11.02935 30.62278,-13.14873 7.91518,-1.6004 5.14707,-13.9273 -2.89795,-12.32698 -13.23525,2.59517 -26.34075,6.61764 -36.28882,16.2197 -5.79583,5.62278 2.68166,14.96534 8.56399,9.25601 z"
     class="st2"
     style="stroke-width:0.432525" /><path
     id="path84"
     d="m 728.24823,588.59066 -27.24904,6.70419 c -4.02249,1.03805 -8.13147,-1.51385 -9.03978,-5.49312 l -4.28199,-17.25775 c -1.03806,-4.02247 1.51384,-8.13148 5.49306,-9.03971 l 27.24911,-6.70419 c 4.02246,-1.03806 8.1314,1.51384 9.03971,5.49311 l 4.28204,17.25775 c 0.9515,4.02247 -1.47057,8.13141 -5.49311,9.03972 z"
     class="st2"
     style="stroke-width:0.432525" /><path
     id="path86"
     d="M 954.67507,820.55382 H 771.28453 v -38.36495 h 183.39054 c 5.23355,0 9.42904,4.19549 9.42904,9.42903 v 19.42033 c 0,5.19035 -4.19549,9.51559 -9.42904,9.51559 z"
     class="st20"
     style="stroke-width:0.432525" /><path
     id="path88"
     d="M 1068.9049,779.20446 H 763.41254 c -0.73529,0 -1.3841,0.64873 -1.3841,1.38402 v 0 c 0,0.73528 0.64881,1.38409 1.3841,1.38409 h 181.14141 c 10.64011,0 19.24739,8.60728 19.24739,19.24739 v 0 c 0,10.64011 -8.60728,19.24738 -19.24739,19.24738 H 763.41254 c -0.73529,0 -1.3841,0.64874 -1.3841,1.38402 v 0 c 0,0.73529 0.64881,1.3841 1.3841,1.3841 h 305.49236 c 10.6402,0 19.2474,-8.60728 19.2474,-19.24738 v -5.57951 c 0,-10.64011 -8.6072,-19.20411 -19.2474,-19.20411 z"
     class="st6"
     style="fill:#6600ff;stroke-width:0.432525" /><path
     id="path90"
     d="m 547.19331,977.4306 c 4.58476,9.25601 27.55184,13.36503 51.25421,-3.63323 35.85632,-25.64873 57.30956,-17.82001 57.30956,-39.27325 0,-9.60205 -1.94637,-18.46882 -4.49827,-28.63314 -2.33563,-9.25601 -2.24913,-26.68678 -2.24913,-26.68678 0,0 -17.08473,1.85989 -25.77848,0.25949 -6.70414,-1.21107 -11.59167,-3.80617 -11.59167,-3.80617 0,0 -2.50864,13.79754 -10.46711,28.37357 -5.57957,10.25087 -9.68856,16.52247 -19.24736,25.30276 -5.79583,5.27682 -42.38744,32.78536 -34.73175,48.09675 z"
     class="st21"
     style="fill:#916f8a;stroke-width:0.432525" /><path
     id="path92"
     d="M 910.73054,812.03309 H 771.28453 v -1.77334 h 139.44601 c 0.47579,0 0.95158,0.38924 0.95158,0.9515 v 0 c -0.0432,0.34605 -0.43259,0.82184 -0.95158,0.82184 z"
     class="st22"
     style="stroke-width:0.432525" /><path
     id="path94"
     d="M 925.91218,793.17495 H 771.28453 v -1.77334 h 154.5411 c 0.47579,0 0.95158,0.38932 0.95158,0.95158 v 0 c 0,0.38924 -0.38924,0.82176 -0.86503,0.82176 z"
     class="st22"
     style="stroke-width:0.432525" /><path
     id="path96"
     d="M 942.91036,802.25801 H 771.28453 v -1.77334 h 171.62583 c 0.47579,0 0.95158,0.38925 0.95158,0.95151 v 0 c 0,0.34604 -0.47579,0.82183 -0.95158,0.82183 z"
     class="st22"
     style="stroke-width:0.432525" /><path
     id="path106"
     d="m 871.50049,1020.5534 h -43.29572 c 0,0 -7.00688,2.3356 -12.97571,13.4515 -7.35293,13.7975 -4.75783,27.1626 -9.51558,37.4134 -5.49304,11.8512 -14.10032,16.4359 -14.10032,16.4359 0,0 9.60206,1.2976 15.39786,0.4758 5.23355,-0.7352 11.67817,-5.147 11.67817,-5.147 0,0 1.21107,2.5086 1.51384,6.9204 0.38932,4.7577 -0.0865,7.3529 -0.0865,7.3529 0,0 15.87365,-3.7197 22.31827,-12.8892 8.95324,-12.6731 1.51384,-28.2872 13.06226,-47.4912 5.10379,-8.5208 16.0034,-16.5225 16.0034,-16.5225 z"
     class="st24"
     style="fill:#93ac93;stroke-width:0.432525" /><path
     id="path122"
     d="m 630.41111,597.11138 v 0 c -3.07092,0.82184 -6.27161,-0.9515 -7.17991,-4.02247 L 582.5306,447.28475 c -0.8218,-3.07088 0.95156,-6.27159 4.02248,-7.1799 v 0 c 3.07093,-0.82176 6.27162,0.95158 7.17991,4.02247 l 40.7006,145.80416 c 0.95156,3.15743 -0.82179,6.31487 -4.02248,7.1799 z"
     class="st26"
     style="fill:#808080;stroke-width:0.432525" /><path
     id="path124"
     d="m 623.05819,591.2291 v 0 c 0.17301,-3.15743 2.89791,-5.70933 6.14185,-5.49311 l 151.1242,8.86677 c 3.15744,0.17302 5.70934,2.89794 5.49312,6.14185 v 0 c -0.17303,3.15744 -2.89795,5.70933 -6.14185,5.49311 l -151.12426,-8.86677 c -3.15742,-0.17302 -5.66607,-2.89794 -5.49306,-6.14185 z"
     class="st26"
     style="fill:#808080;stroke-width:0.432525" /><g
     id="g142"
     style="fill:#ff0066;fill-opacity:1"
     transform="matrix(0.43252495,0,0,0.43252495,513.11034,232.40638)">
		<path
   id="path126"
   d="m 1625.5,1057.4 -15.3,-4.1 c -0.9,-0.2 -1.5,-1.3 -1.3,-2.2 0.2,-0.9 1.3,-1.5 2.2,-1.3 l 11.9,3.2 3.2,-11.9 c 0.2,-0.9 1.3,-1.5 2.2,-1.3 0.9,0.2 1.5,1.3 1.3,2.2 z"
   class="st0"
   style="fill:#ff0066;fill-opacity:1" />
		<path
   id="path128"
   d="m 1583,1045.8 c -0.2,0 -0.2,0 -0.4,0 l -27.6,-7.6 c -0.9,-0.2 -1.5,-1.3 -1.3,-2.2 0.2,-0.9 1.3,-1.5 2.2,-1.3 l 27.6,7.6 c 0.9,0.2 1.5,1.3 1.3,2.2 -0.3,0.9 -0.9,1.3 -1.8,1.3 z m -55.2,-14.9 c -0.2,0 -0.2,0 -0.4,0 l -27.6,-7.6 c -0.9,-0.2 -1.5,-1.3 -1.3,-2.2 0.2,-0.9 1.3,-1.5 2.2,-1.3 l 27.6,7.6 c 0.9,0.2 1.5,1.3 1.3,2.2 -0.3,0.9 -1,1.3 -1.8,1.3 z m -55.1,-14.9 c -0.2,0 -0.2,0 -0.4,0 l -27.6,-7.6 c -0.9,-0.2 -1.5,-1.3 -1.3,-2.2 0.2,-0.9 1.3,-1.5 2.2,-1.3 l 27.6,7.6 c 0.9,0.2 1.5,1.3 1.3,2.2 -0.5,0.9 -1.1,1.3 -1.8,1.3 z"
   class="st0"
   style="fill:#ff0066;fill-opacity:1" />
		<path
   id="path130"
   d="m 1417.5,1001.1 c -0.2,0 -0.2,0 -0.4,0 l -15.3,-4.1 4.1,-15.3 c 0.2,-0.9 1.3,-1.5 2.2,-1.3 0.9,0.2 1.5,1.3 1.3,2.2 l -3.2,11.9 11.9,3.2 c 0.9,0.2 1.5,1.3 1.3,2.2 -0.6,0.8 -1.2,1.2 -1.9,1.2 z"
   class="st0"
   style="fill:#ff0066;fill-opacity:1" />
		<path
   id="path132"
   d="m 1414.9,956.2 c -0.2,0 -0.2,0 -0.4,0 -0.9,-0.2 -1.5,-1.3 -1.3,-2.2 l 7.3,-27.6 c 0.2,-0.9 1.3,-1.5 2.2,-1.3 0.9,0.2 1.5,1.3 1.3,2.2 l -7.3,27.6 c -0.3,0.9 -0.9,1.3 -1.8,1.3 z m 14.9,-55 c -0.2,0 -0.2,0 -0.4,0 -0.9,-0.2 -1.5,-1.3 -1.3,-2.2 l 7.3,-27.6 c 0.2,-0.9 1.3,-1.5 2.2,-1.3 0.9,0.2 1.5,1.3 1.3,2.2 l -7.3,27.6 c -0.3,0.7 -0.9,1.3 -1.8,1.3 z"
   class="st0"
   style="fill:#ff0066;fill-opacity:1" />
		<path
   id="path134"
   d="m 1444.7,846 c -0.2,0 -0.2,0 -0.4,0 -0.9,-0.2 -1.5,-1.3 -1.3,-2.2 l 4.1,-15.3 15.3,4.1 c 0.9,0.2 1.5,1.3 1.3,2.2 -0.2,0.9 -1.3,1.5 -2.2,1.3 l -11.9,-3.2 -3.2,11.9 c -0.2,0.7 -0.8,1.2 -1.7,1.2 z"
   class="st0"
   style="fill:#ff0066;fill-opacity:1" />
		<path
   id="path136"
   d="m 1627.7,880.7 c -0.2,0 -0.2,0 -0.4,0 l -27.6,-7.6 c -0.9,-0.2 -1.5,-1.3 -1.3,-2.2 0.2,-0.9 1.3,-1.5 2.2,-1.3 l 27.6,7.6 c 0.9,0.2 1.5,1.3 1.3,2.2 -0.3,0.9 -1.2,1.3 -1.8,1.3 z m -55.3,-14.9 c -0.2,0 -0.2,0 -0.4,0 l -27.6,-7.6 c -0.9,-0.2 -1.5,-1.3 -1.3,-2.2 0.2,-0.9 1.3,-1.5 2.2,-1.3 l 27.6,7.6 c 0.9,0.2 1.5,1.3 1.3,2.2 -0.3,0.9 -1.1,1.3 -1.8,1.3 z m -55.2,-14.9 c -0.2,0 -0.2,0 -0.4,0 l -27.6,-7.6 c -0.9,-0.2 -1.5,-1.3 -1.3,-2.2 0.2,-0.9 1.3,-1.5 2.2,-1.3 l 27.6,7.6 c 0.9,0.2 1.5,1.3 1.3,2.2 -0.3,0.9 -0.9,1.3 -1.8,1.3 z"
   class="st0"
   style="fill:#ff0066;fill-opacity:1" />
		<path
   id="path138"
   d="m 1665.2,905.5 c -0.2,0 -0.2,0 -0.4,0 -0.9,-0.2 -1.5,-1.3 -1.3,-2.2 l 3.2,-11.9 -11.9,-3.2 c -0.9,-0.2 -1.5,-1.3 -1.3,-2.2 0.2,-0.9 1.3,-1.5 2.2,-1.3 l 15.3,4.1 -4.1,15.3 c -0.2,1 -1,1.4 -1.7,1.4 z"
   class="st0"
   style="fill:#ff0066;fill-opacity:1" />
		<path
   id="path140"
   d="m 1635.4,1015.8 c -0.2,0 -0.2,0 -0.4,0 -0.9,-0.2 -1.5,-1.3 -1.3,-2.2 L 1641,986 c 0.2,-0.9 1.3,-1.5 2.2,-1.3 0.9,0.2 1.5,1.3 1.3,2.2 l -7.3,27.6 c -0.2,0.9 -1.1,1.3 -1.8,1.3 z m 14.9,-55 c -0.2,0 -0.2,0 -0.4,0 -0.9,-0.2 -1.5,-1.3 -1.3,-2.2 l 7.3,-27.6 c 0.2,-0.9 1.3,-1.5 2.2,-1.3 0.9,0.2 1.5,1.3 1.3,2.2 l -7.3,27.6 c -0.3,0.6 -1.1,1.3 -1.8,1.3 z"
   class="st0"
   style="fill:#ff0066;fill-opacity:1" />
	</g><g
     id="g148"
     transform="matrix(0.43252495,0,0,0.43252495,513.11034,232.40638)">
		<path
   id="path144"
   d="m 1031.2,913.9 c -43.4,-3.9 -77.5,-12.3 -98.4,-18.8 30.4,18.1 66.9,30.6 106.8,35 24.4,2.6 48.3,2.2 70.8,-1.3 -0.2,-5.8 -0.2,-10.8 -0.2,-15.3 -21.1,2.4 -48.3,3.3 -79,0.4 z"
   class="st14" />
		<path
   id="path146"
   d="M 911.7,870.4 Z"
   class="st14" />
	</g><g
     id="g156"
     style="fill:#ff0066;fill-opacity:1"
     transform="matrix(0.43252495,0,0,0.43252495,513.11034,232.40638)">
		<path
   id="path150"
   d="m 32.8,411.2 c -0.6,0 -1.1,-0.2 -1.5,-0.6 -2.8,-3.9 -5,-8.2 -6.9,-12.7 -0.4,-0.9 0,-1.9 0.9,-2.4 0.9,-0.5 1.9,0 2.4,0.9 1.7,4.3 3.9,8.4 6.5,12.1 0.6,0.9 0.4,1.9 -0.4,2.4 -0.4,0 -0.8,0.3 -1,0.3 z"
   class="st0"
   style="fill:#ff0066;fill-opacity:1" />
		<path
   id="path152"
   d="m 20.5,370.4 c -0.9,0 -1.7,-0.9 -1.7,-1.7 v -0.9 c 0,-9.5 1.5,-19 4.3,-28.5 0.2,-0.9 1.3,-1.5 2.2,-1.1 0.9,0.2 1.5,1.3 1.1,2.2 -2.8,9.1 -4.3,18.3 -4.3,27.4 v 0.6 c 0.1,1.1 -0.7,2 -1.6,2 z m 16.8,-55 c -0.4,0 -0.6,0 -0.9,-0.2 -0.9,-0.4 -1.1,-1.5 -0.4,-2.4 5,-7.8 11.2,-15.5 18.6,-22.9 0.6,-0.6 1.7,-0.6 2.4,0 0.6,0.6 0.6,1.7 0,2.4 -7.1,7.1 -13.2,14.7 -18.1,22.2 -0.5,0.6 -0.9,0.9 -1.6,0.9 z m 40.4,-41.7 c -0.4,0 -1.1,-0.2 -1.3,-0.6 -0.6,-0.9 -0.4,-1.9 0.4,-2.4 4.7,-3.7 9.9,-7.3 15.5,-11 2.8,-1.9 5.8,-3.9 8.6,-5.6 0.9,-0.4 1.9,-0.2 2.4,0.4 0.4,0.9 0.2,1.9 -0.4,2.4 -2.8,1.9 -5.8,3.7 -8.6,5.6 -5.6,3.7 -10.6,7.3 -15.3,11 -0.7,0 -0.9,0.2 -1.3,0.2 z m 48.5,-32.4 c -0.6,0 -1.1,-0.2 -1.5,-0.9 -0.4,-0.9 -0.2,-1.9 0.4,-2.4 9.7,-6.3 17,-11.4 23.5,-16.8 0.6,-0.6 1.9,-0.4 2.4,0.2 0.6,0.6 0.4,1.9 -0.2,2.4 -6.7,5.4 -14,10.6 -24,17 0.1,0.5 -0.3,0.5 -0.6,0.5 z M 227,223.9 c -0.9,0 -1.7,-0.9 -1.7,-1.7 0,-0.9 0.6,-1.7 1.7,-1.7 9.5,-0.2 19,-1.3 28.5,-3.7 0.9,-0.2 1.9,0.4 2.2,1.3 0.2,0.9 -0.4,1.9 -1.3,2.2 -9.8,2 -19.7,3.3 -29.4,3.6 z m -28.9,-2.6 c -0.2,0 -0.2,0 -0.4,0 -9.7,-1.9 -19.2,-5 -28.1,-8.8 -0.9,-0.4 -1.3,-1.5 -0.9,-2.4 0.4,-0.9 1.5,-1.3 2.4,-0.9 8.6,3.9 17.9,6.7 27.4,8.6 0.9,0.2 1.5,1.1 1.3,2.2 -0.2,0.6 -0.8,1.3 -1.7,1.3 z m 85.4,-10.2 c -0.6,0 -1.3,-0.4 -1.5,-1.1 -0.4,-0.9 0,-1.9 0.9,-2.4 8.4,-3.7 16.8,-8 25.7,-13.4 0.9,-0.4 1.9,-0.2 2.4,0.6 0.4,0.9 0.2,1.9 -0.6,2.4 -9.1,5.4 -17.5,9.7 -26.1,13.4 -0.3,0.3 -0.5,0.5 -0.8,0.5 z m -112.6,-6.7 c -0.4,0 -0.9,-0.2 -1.1,-0.4 -0.6,-0.6 -0.9,-1.7 -0.2,-2.4 6.5,-7.6 11.4,-15.8 15.3,-24.2 0.4,-0.9 1.5,-1.3 2.4,-0.9 0.9,0.4 1.3,1.5 0.9,2.4 -3.9,8.6 -9.3,17 -15.8,25 -0.6,0.3 -1.1,0.5 -1.5,0.5 z m -25.5,-6.9 c -0.4,0 -0.9,-0.2 -1.1,-0.4 -8.2,-6.5 -14.9,-13.8 -19.9,-22 -0.4,-0.9 -0.2,-1.9 0.6,-2.4 0.9,-0.4 1.9,-0.2 2.4,0.6 4.7,7.8 11.2,14.9 19,21.1 0.6,0.6 0.9,1.7 0.2,2.4 -0.3,0.5 -0.7,0.7 -1.2,0.7 z m 188.2,-15.9 c -0.6,0 -1.1,-0.2 -1.5,-0.6 -0.6,-0.9 -0.4,-1.9 0.4,-2.4 7.3,-5.2 14,-10.4 20.5,-15.5 l 2.8,-2.2 c 0.9,-0.6 1.9,-0.4 2.4,0.2 0.4,0.6 0.4,1.9 -0.2,2.4 l -2.8,2.2 c -6.5,5 -13.4,10.1 -20.5,15.5 -0.4,0.1 -0.7,0.4 -1.1,0.4 z m -140,-29.8 v 0 c -1.1,0 -1.7,-0.9 -1.7,-1.9 0,-1 0,-2.2 0,-3.5 0,-3.9 -0.4,-7.8 -1.1,-11.7 -0.9,-4.3 -2.2,-8.4 -4.3,-12.5 -0.4,-0.9 0,-1.9 0.9,-2.4 0.9,-0.4 1.9,0 2.4,0.9 2.2,4.3 3.7,8.8 4.5,13.4 0.9,3.9 1.1,8.2 1.1,12.3 0,1.3 0,2.4 0,3.7 -0.1,0.8 -1,1.7 -1.8,1.7 z m -77.5,-3 c -0.9,0 -1.7,-0.6 -1.7,-1.5 -0.2,-1.9 -0.2,-4.1 -0.2,-6 0,-8.2 1.7,-16.2 4.7,-23.3 0.4,-0.9 1.5,-1.3 2.4,-0.9 0.9,0.4 1.3,1.5 0.9,2.4 -3,6.7 -4.5,14.2 -4.5,22 0,1.9 0,3.9 0.2,5.6 0.1,0.8 -0.5,1.7 -1.8,1.7 0.2,0 0.2,0 0,0 z m 52.2,-46.4 c -0.2,0 -0.6,0 -0.9,-0.2 -7.1,-4.1 -14.9,-5.4 -22,-3.7 -1.5,0.4 -3,0.9 -4.5,1.3 -0.9,0.4 -1.9,0 -2.2,-1.1 -0.4,-0.9 0,-1.9 1.1,-2.2 1.5,-0.6 3.2,-1.1 5,-1.5 8.2,-1.7 16.6,-0.4 24.6,4.1 0.9,0.4 1.1,1.5 0.6,2.4 -0.4,0.7 -1,0.9 -1.7,0.9 z"
   class="st0"
   style="fill:#ff0066;fill-opacity:1" />
		<path
   id="path154"
   d="m 380.6,146.8 c -0.6,0 -1.1,-0.2 -1.5,-0.9 -0.4,-0.9 -0.2,-1.9 0.6,-2.4 5,-3 9.3,-5.2 13.2,-6.3 0.9,-0.2 1.9,0.2 2.2,1.3 0.2,0.9 -0.2,1.9 -1.3,2.2 -3.5,1.1 -7.6,2.8 -12.3,5.8 -0.2,0.3 -0.4,0.3 -0.9,0.3 z"
   class="st0"
   style="fill:#ff0066;fill-opacity:1" />
	</g></g>
</svg>
