<?xml version="1.0" encoding="UTF-8" standalone="no"?>
<svg
   xmlns:dc="http://purl.org/dc/elements/1.1/"
   xmlns:cc="http://creativecommons.org/ns#"
   xmlns:rdf="http://www.w3.org/1999/02/22-rdf-syntax-ns#"
   xmlns:svg="http://www.w3.org/2000/svg"
   xmlns="http://www.w3.org/2000/svg"
   xmlns:sodipodi="http://sodipodi.sourceforge.net/DTD/sodipodi-0.dtd"
   xmlns:inkscape="http://www.inkscape.org/namespaces/inkscape"
   sodipodi:docname="instagram.svg"
   inkscape:version="1.0 (1.0+r73+1)"
   id="svg8"
   version="1.1"
   viewBox="0 0 7.1819486 7.2122526"
   height="7.2122526mm"
   width="7.1819487mm">
  <defs
     id="defs2">
    <clipPath
       id="clipPath1092"
       clipPathUnits="userSpaceOnUse">
      <rect
         y="73.291718"
         x="278.36975"
         height="148.40788"
         width="142.26947"
         id="rect1094"
         style="fill:#ffd400;fill-opacity:0.339245;stroke-width:0.736243;stroke-linecap:round;stroke-linejoin:round;paint-order:stroke fill markers" />
    </clipPath>
    <clipPath
       id="clipPath1110"
       clipPathUnits="userSpaceOnUse">
      <path
         d="M 272.61447,64.977796 V 229.93934 H 419.69891 V 64.977796 Z m 75.45333,10.30287 c 1.25638,0.01601 2.5152,0.134524 3.73431,0.357619 1.0779,0.197255 1.21771,0.231866 1.59215,0.388439 0.97194,0.406442 1.27838,0.513195 1.46988,0.513195 0.19834,0 0.91296,0.322683 1.04155,0.470267 0.0337,0.03866 0.18873,0.10719 0.34448,0.152544 0.4457,0.129796 1.11465,0.561986 1.12037,0.72383 0.003,0.0809 -0.23242,0.363635 -0.52281,0.628366 -1.32824,1.210923 -2.76303,3.419365 -3.20799,4.937518 -0.66434,2.266637 -0.84466,4.849868 -0.49047,7.027183 0.11756,0.722685 0.29012,1.508434 0.38337,1.74619 0.15719,0.400763 0.14959,0.457067 -0.0995,0.771313 -0.14777,0.186426 -0.31303,0.338932 -0.36773,0.338932 -0.0547,0 -0.0995,0.07261 -0.0995,0.161637 0,0.08903 -0.0446,0.179079 -0.099,0.200027 -0.22689,0.08729 -1.14352,1.444231 -1.98763,2.943316 -0.10156,0.18032 -0.54478,1.123605 -0.72889,1.550707 -0.35038,0.81284 -1.06221,3.141881 -1.41382,4.627371 -0.11158,0.47132 -0.27745,1.13992 -0.36924,1.48555 -0.0918,0.34564 -0.19557,0.85979 -0.23035,1.14258 -0.0348,0.28279 -0.13728,0.74563 -0.22779,1.02841 -0.14858,0.46425 -0.17175,0.48623 -0.23995,0.22832 h -5.2e-4 c -0.0415,-0.15711 -0.11022,-0.54247 -0.15256,-0.85668 -0.0423,-0.31421 -0.15165,-0.88018 -0.24295,-1.25723 -0.0913,-0.37706 -0.25652,-1.07081 -0.36721,-1.54213 -0.38281,-1.62999 -1.09013,-3.932525 -1.49213,-4.856191 -0.44183,-1.015263 -0.56007,-1.273886 -0.75664,-1.656783 -0.11295,-0.219945 -0.24314,-0.426451 -0.28945,-0.459151 -0.0463,-0.03269 -0.14362,-0.187147 -0.21619,-0.342973 -0.0726,-0.155827 -0.24079,-0.437314 -0.37378,-0.62584 -0.13301,-0.188526 -0.28097,-0.419944 -0.32883,-0.514208 -0.0479,-0.09427 -0.1912,-0.274367 -0.31824,-0.400054 -0.12701,-0.125684 -0.31006,-0.369679 -0.40712,-0.542494 -0.0971,-0.172817 -0.23035,-0.314184 -0.29598,-0.314184 -0.0657,0 -0.11923,-0.07207 -0.11923,-0.159615 0,-0.08754 -0.0828,-0.188606 -0.18385,-0.224777 -0.23002,-0.08233 -0.23126,-0.298551 -0.005,-1.033975 0.22164,-0.721422 0.55976,-3.107997 0.55965,-3.952033 -1e-4,-0.810585 -0.33775,-3.095584 -0.56319,-3.812118 -0.0962,-0.305715 -0.17478,-0.625278 -0.17478,-0.710194 0,-0.360153 -1.32677,-2.901869 -1.66535,-3.190318 -0.0738,-0.06284 -0.26576,-0.293756 -0.42683,-0.513704 -0.38834,-0.530235 -0.6864,-0.856562 -1.27644,-1.396648 -0.48999,-0.448493 -0.49027,-0.448317 -0.12527,-0.722314 0.55854,-0.419272 2.46529,-1.262719 3.555,-1.57243 1.88431,-0.535524 3.9715,-0.793936 6.06547,-0.76727 z m 28.11075,10.658971 c 0.0559,0 0.13589,0.244501 0.17781,0.543 0.11017,0.784834 0.57757,1.990778 0.97991,2.52811 0.18817,0.251303 1.4307,1.414148 1.78558,1.670927 0.50108,0.362556 0.585,0.952119 2.01189,1.07893 l 1.22492,0.568255 -1.59263,0.0035 c -1.85069,0.0037 -3.05036,0.211677 -4.22582,0.732421 -0.89842,0.398021 -0.89868,0.397809 -1.74265,1.101658 -0.65633,0.547367 -1.68709,1.728869 -1.68709,1.933587 0,0.06761 -0.072,0.12325 -0.15962,0.12325 -0.10601,0 -0.3061,-0.309405 -0.3061,-0.948609 0,-1.935976 -0.12034,-4.398091 0.41066,-5.790154 0.1838,-0.481894 1.01803,-1.727187 1.49412,-2.230595 0.35364,-0.373915 1.51919,-1.314316 1.62902,-1.314316 z m -52.2796,0.06618 c 0.19071,0.02773 0.80638,0.462888 1.33151,0.955683 1.05959,0.994378 1.80522,2.262667 2.12906,3.622193 0.34006,1.427591 0.20004,5.639626 -0.1874,5.639626 -0.0613,0 -0.30282,-0.279421 -0.53694,-0.620788 -0.76911,-1.121477 -2.21539,-2.266024 -3.43026,-2.715004 -0.98203,-0.362929 -2.31017,-0.552246 -3.91969,-0.558153 -1.55252,-0.0057 -1.58177,-0.01001 -1.16379,-0.185883 1.00696,-0.423676 1.28989,-0.551078 1.34764,-0.607151 0.0337,-0.03271 0.1988,-0.1227 0.36724,-0.19952 0.93447,-0.42619 2.57254,-1.682348 2.57254,-1.972988 0,-0.06075 0.0485,-0.110622 0.10759,-0.110622 0.0592,0 0.17643,-0.153938 0.26014,-0.342467 0.0838,-0.188526 0.20043,-0.342976 0.25963,-0.342976 0.0592,0 0.10818,-0.06439 0.1086,-0.142947 2.6e-4,-0.07855 0.0747,-0.275893 0.16567,-0.438441 0.0909,-0.162547 0.23576,-0.651044 0.32178,-1.085494 0.086,-0.434453 0.18183,-0.830648 0.21266,-0.880924 0.008,-0.01371 0.0268,-0.0181 0.054,-0.01415 z m -11.45099,8.429387 c 0.022,0.02053 -0.099,0.281859 -0.26922,0.580381 -0.80999,1.420963 -1.15898,3.221777 -0.91729,4.736984 0.086,0.539161 0.20027,1.058511 0.25406,1.153681 0.0538,0.0952 0.22554,0.42983 0.38136,0.74404 0.15582,0.31421 0.35222,0.63927 0.43643,0.72231 0.0842,0.0831 0.15305,0.19688 0.15305,0.25256 0,0.16422 1.48357,1.48202 1.6684,1.48202 0.0932,0 0.16922,0.0472 0.16922,0.10506 0,0.0579 0.16487,0.13908 0.3662,0.18033 0.20134,0.0412 0.39748,0.12232 0.43593,0.18033 0.0384,0.058 0.24567,0.10612 0.46066,0.10708 0.55156,0.002 0.72638,0.1354 0.63341,0.48087 -0.0689,1.33364 2.16361,0.97402 1.59465,0.13588 -0.16841,-0.20598 -0.30608,-0.4295 -0.30608,-0.49653 0,-0.18784 0.30916,-0.14644 0.71322,0.0788 0.0438,-0.0727 0.1145,-0.16852 0.24497,-0.31519 0.14806,0 0.32035,0.21676 0.2354,0.296 -0.0911,0.0363 -0.2038,0.0875 -0.30357,0.12526 0.53205,0.34237 0.83324,0.24909 0.58541,-0.18285 -0.0767,-0.13373 -0.10591,-0.29305 -0.0652,-0.35459 0.1179,-0.17795 0.63848,-0.12971 0.71927,0.0667 0.24898,0.26655 0.22622,-0.0446 0.1874,-0.19649 -0.11105,-0.19358 -0.0853,-0.2627 0.15305,-0.41318 0.54357,-0.34326 1.19268,-1.05327 1.45929,-1.59567 0.39763,-0.80893 0.40014,-2.55418 0.004,-3.151416 -0.5159,-0.778614 -1.06805,-0.954723 -1.65121,-0.526837 -0.46441,0.340721 -0.44408,0.910034 0.048,1.348661 0.30737,0.273992 0.33709,0.342602 0.17377,0.401062 -0.48181,0.17245 -1.1521,-0.0516 -1.48657,-0.497033 -0.24199,-0.322279 -0.23147,-1.427765 0.0167,-1.781042 0.32542,-0.463243 1.02243,-0.876108 1.57747,-0.934466 1.4251,-0.149826 2.84622,1.186372 3.55199,3.339831 0.68193,2.08082 0.87941,3.72363 0.87941,7.31257 0,3.85975 -0.21822,5.43035 -1.135,8.16976 -0.41638,1.24414 -1.4184,3.32615 -1.64061,3.40853 -0.0565,0.0209 -0.10427,0.0979 -0.10608,0.17123 -0.002,0.0733 -0.15344,0.29728 -0.33691,0.49754 -0.33357,0.36412 -0.33382,0.36431 -1.80379,0.18488 -1.3665,-0.16682 -1.57277,-0.16549 -2.93371,0.0212 -2.35525,0.32315 -4.61688,1.12517 -6.51701,2.31091 -0.919,0.5735 -1.99197,1.3895 -2.42205,1.84216 -0.13971,0.14704 -0.43436,0.45594 -0.65462,0.68595 -1.15078,1.2017 -2.80173,3.81679 -3.94243,6.24527 -0.14759,0.31421 -0.31934,0.66068 -0.38188,0.76979 -0.0625,0.10913 -0.11366,0.24701 -0.11366,0.30661 0,0.0596 -0.0645,0.25294 -0.14343,0.42985 -0.2769,0.62044 -0.76618,2.24221 -1.02793,3.40702 -0.29902,1.33083 -0.44695,3.11785 -0.3854,4.65565 0.0321,0.80125 0.0219,1.45676 -0.0227,1.45676 -0.0446,0 -0.17077,-0.0974 -0.28035,-0.21669 h 10e-4 c -0.10955,-0.11936 -0.49291,-0.56962 -0.85161,-1.00013 -0.35871,-0.43051 -0.68061,-0.80809 -0.71576,-0.8395 -0.1697,-0.15174 -0.61523,-0.80358 -0.61523,-0.90013 0,-0.0601 -0.0414,-0.12654 -0.0919,-0.14749 -0.13417,-0.0556 -0.643,-0.75277 -0.643,-0.88092 0,-0.0601 -0.0462,-0.12655 -0.10254,-0.1475 -0.20975,-0.078 -1.66337,-2.68253 -2.22101,-3.97981 -0.14855,-0.34563 -0.32022,-0.7177 -0.38185,-0.82688 -0.0617,-0.10918 -0.18701,-0.39191 -0.27832,-0.62836 -1.44947,-3.75347 -1.7939,-5.6483 -1.79317,-9.8614 2.6e-4,-2.38727 0.0454,-3.16468 0.25104,-4.33693 0.25769,-1.4685 0.28996,-1.59302 0.74252,-2.85644 0.54763,-1.52879 0.69217,-1.82688 1.46482,-3.02766 0.42233,-0.65629 0.65962,-0.9182 1.76338,-1.94268 2.21109,-2.05228 4.72842,-2.54435 6.4958,-1.27036 0.61348,0.44219 0.72466,0.5682 1.10317,1.25167 0.24967,0.45085 0.30561,0.71616 0.30561,1.44766 0,0.83687 -0.0265,0.92806 -0.40308,1.38857 -0.44022,0.53835 -1.18107,0.87935 -1.93461,0.89001 -0.6361,0.009 -0.67197,-0.11557 -0.10202,-0.35357 0.72594,-0.30317 0.96092,-0.61894 0.96576,-1.29816 0.005,-0.65999 -0.28952,-1.04245 -1.09862,-1.42745 -1.12794,-0.53674 -2.29087,-0.13305 -3.13072,1.08599 -0.34569,0.50179 -0.34101,2.34348 0.007,2.97566 0.30716,0.55728 1.22076,1.41816 1.78002,1.67698 0.78052,0.36122 1.96298,0.48749 3.07414,0.32882 0.54752,-0.0782 1.08478,-0.18651 1.1941,-0.24093 0.10932,-0.0544 0.47369,-0.21785 0.80969,-0.36318 0.70375,-0.30439 1.03223,-0.53365 1.71589,-1.19764 0.66879,-0.64955 0.70758,-0.70041 1.02791,-1.35169 0.15455,-0.31421 0.34515,-0.6947 0.42328,-0.84556 0.0864,-0.1668 0.14196,-0.8836 0.14196,-1.82853 0,-1.23465 -0.0466,-1.67109 -0.22782,-2.12502 -0.25058,-0.62771 -0.59465,-1.33859 -0.69101,-1.42797 -0.0339,-0.0314 -0.21152,-0.26284 -0.3945,-0.51421 -0.42749,-0.58739 -1.02873,-1.19965 -1.17791,-1.19965 -0.0639,0 -0.14296,-0.0652 -0.17578,-0.14497 -0.0501,-0.12188 -1.36549,-0.78176 -2.23261,-1.11984 -0.58257,-0.22714 -2.71758,-0.46741 -3.47826,-0.39147 -0.7014,0.07 -0.77462,0.0582 -0.70412,-0.11315 0.0433,-0.10523 0.22306,-0.58133 0.39955,-1.05822 0.3338,-0.90205 1.5069,-3.12072 1.7674,-3.34235 0.037,-0.0314 0.19754,-0.23718 0.35711,-0.457128 0.15959,-0.219948 0.44658,-0.538395 0.63747,-0.707669 0.19089,-0.169274 0.34701,-0.361954 0.34701,-0.428339 0,-0.06638 0.0444,-0.120724 0.099,-0.120724 0.0545,0 0.2616,-0.142463 0.45965,-0.316708 0.58306,-0.512923 1.39517,-1.058735 2.07503,-1.394121 0.13475,-0.06648 0.41059,-0.21984 0.6127,-0.340954 0.46883,-0.280934 1.64418,-0.816693 2.51094,-1.144595 0.37055,-0.140182 0.78406,-0.299435 0.9188,-0.353582 0.48157,-0.19351 1.69833,-0.559956 1.73761,-0.523302 z m 75.26341,0.08436 c 0.23542,-0.02924 2.13728,0.545235 2.73218,0.836472 0.20212,0.09895 0.43607,0.180445 0.52027,0.180832 0.0843,2.59e-4 0.15306,0.05181 0.15306,0.114662 0,0.06284 0.0858,0.114662 0.19042,0.114662 0.21413,0 1.1964,0.467644 1.25927,0.599574 0.0225,0.04713 0.10347,0.08587 0.17981,0.08587 0.32763,0 2.56624,1.551931 3.37215,2.33768 0.48307,0.470954 0.8784,0.904683 0.8784,0.963762 0,0.05908 0.0414,0.124526 0.092,0.145474 0.10435,0.04326 0.64301,0.739748 0.64301,0.831428 0,0.033 0.1651,0.31085 0.36721,0.61725 0.20214,0.30639 0.36773,0.63716 0.36773,0.73494 0,0.0978 0.0414,0.19474 0.092,0.21569 0.10585,0.0439 0.64301,1.23595 0.64301,1.42695 0,0.0701 0.0822,0.27461 0.18284,0.45461 0.32661,0.58412 0.26782,0.63964 -0.58846,0.55411 -0.51316,-0.0513 -1.14082,-0.0159 -1.86791,0.10507 -1.25382,0.20859 -2.50385,0.54178 -2.50385,0.66776 0,0.0471 -0.0746,0.0859 -0.1657,0.0859 -0.0911,0 -0.51577,0.2445 -0.94355,0.543 -2.78831,1.94556 -3.74073,5.60939 -2.17807,8.37888 0.34661,0.6143 1.33474,1.69168 1.70175,1.8558 0.0974,0.0436 0.34238,0.18129 0.54452,0.30559 0.20211,0.12429 0.45002,0.25576 0.55106,0.29247 0.10108,0.0367 0.34899,0.133 0.5511,0.21416 0.20211,0.0811 0.77312,0.21547 1.26835,0.29802 0.73619,0.12271 1.07007,0.12309 1.83155,0.004 1.27827,-0.20035 2.03952,-0.66128 2.93675,-1.77953 0.1739,-0.21673 0.51724,-1.39261 0.51724,-1.77144 0,-1.00728 -0.67155,-2.08786 -1.58002,-2.54225 -0.41769,-0.20893 -1.54038,-0.27518 -1.6578,-0.098 -0.037,0.0559 -0.20702,0.13428 -0.37782,0.17427 -0.78992,0.18492 -1.22955,1.12871 -0.91425,1.96339 0.14171,0.37516 0.83491,0.84445 1.25116,0.84708 0.22399,0.001 0.24192,0.0232 0.0934,0.11264 -0.466,0.28091 -1.58955,0.0182 -2.24828,-0.52583 -0.53033,-0.43796 -0.86772,-1.34701 -0.74909,-2.01794 0.047,-0.26613 0.12682,-0.53521 0.17731,-0.59806 0.0504,-0.0628 0.12796,-0.25602 0.17224,-0.42884 0.0443,-0.17281 0.13443,-0.31418 0.20053,-0.31418 0.0661,0 0.12021,-0.0712 0.12021,-0.15811 0,-0.23443 0.89461,-0.94555 1.56082,-1.24056 1.62887,-0.72132 4.08808,0.0328 6.03815,1.85176 0.55715,0.51967 1.22037,1.31763 1.22037,1.46787 0,0.0643 0.0457,0.13412 0.10154,0.15507 0.1411,0.053 1.00115,1.44621 1.00115,1.62193 0,0.0789 0.0809,0.24321 0.17981,0.3652 0.0989,0.12198 0.18311,0.32437 0.1874,0.45005 0.004,0.12569 0.089,0.32859 0.18789,0.45057 0.0989,0.12199 0.17984,0.33437 0.17984,0.47178 0,0.13742 0.0776,0.42302 0.17224,0.63493 0.0946,0.2119 0.22992,0.82208 0.30104,1.35624 0.0712,0.53415 0.19161,1.33155 0.26772,1.77144 0.3069,1.77416 0.16432,6.85112 -0.23943,8.51829 -0.0676,0.27937 -0.17499,0.73907 -0.23843,1.02185 -0.0634,0.28279 -0.20591,0.79744 -0.3167,1.14308 -0.11077,0.34563 -0.25717,0.83206 -0.32529,1.08095 -0.0681,0.24889 -0.1687,0.50597 -0.22327,0.57129 -0.0545,0.0653 -0.13844,0.27115 -0.18639,0.45764 -0.0479,0.1865 -0.22393,0.62367 -0.39095,0.97133 -0.16702,0.34766 -0.37358,0.78635 -0.45915,0.97488 -0.39459,0.86938 -1.84844,3.4848 -1.93712,3.4848 -0.0546,0 -0.099,0.0592 -0.099,0.13183 0,0.18013 -1.23938,1.9245 -1.36734,1.9245 -0.0564,0 -0.10255,0.0533 -0.10255,0.11769 0,0.1546 -0.88216,1.2537 -1.00619,1.2537 -0.053,0 -0.0965,0.0462 -0.0965,0.10304 0,0.14414 -0.75522,0.92538 -0.89456,0.92538 -0.0629,0 -0.0777,-0.11572 -0.0333,-0.25711 0.0444,-0.14139 0.11043,-0.74559 0.14649,-1.3426 0.12615,-2.08787 -0.69412,-6.20637 -1.67245,-8.39806 -0.0842,-0.18853 -0.23102,-0.52258 -0.3263,-0.74253 -0.0952,-0.21994 -0.25267,-0.53632 -0.35004,-0.70312 -0.0974,-0.1668 -0.17731,-0.40836 -0.17731,-0.53694 0,-0.12857 -0.0688,-0.27503 -0.15305,-0.32529 -0.0843,-0.0503 -0.3436,-0.45113 -0.57634,-0.89103 -0.2327,-0.4399 -0.56226,-1.00537 -0.73241,-1.25673 -0.49133,-0.72586 -0.60509,-0.9029 -0.69858,-1.0855 -0.0483,-0.0942 -0.11931,-0.1974 -0.15809,-0.22881 -0.0388,-0.0314 -0.23602,-0.2885 -0.43795,-0.57129 -0.43128,-0.60397 -2.77176,-2.85644 -2.96805,-2.85644 -0.0742,0 -0.15334,-0.0449 -0.17579,-0.10001 -0.0225,-0.0551 -0.39905,-0.31148 -0.83697,-0.56926 -0.43792,-0.25779 -0.86007,-0.51881 -0.93851,-0.58038 -0.0785,-0.0616 -0.28546,-0.1456 -0.45967,-0.18639 -0.1742,-0.0408 -0.3167,-0.11976 -0.3167,-0.17578 0,-0.056 -0.0994,-0.10204 -0.22125,-0.10204 -0.12187,0 -0.32886,-0.0754 -0.45965,-0.1677 -0.13078,-0.0923 -0.3122,-0.16923 -0.40308,-0.17123 -0.0909,-0.002 -0.33879,-0.0758 -0.55109,-0.16366 -0.53206,-0.22031 -1.25757,-0.38938 -2.83571,-0.6612 -1.21195,-0.20874 -1.48979,-0.21894 -2.75896,-0.10152 -0.7761,0.0718 -1.51981,0.15509 -1.65325,0.18537 -0.33371,0.0758 -0.87333,-0.62254 -1.70527,-2.20736 -0.23989,-0.45698 -0.43782,-0.89417 -0.43996,-0.97134 -0.002,-0.0772 -0.0849,-0.24018 -0.18386,-0.36216 -0.0989,-0.12199 -0.17981,-0.30872 -0.17981,-0.41521 0,-0.10649 -0.0822,-0.34078 -0.18287,-0.52078 -0.10063,-0.18 -0.18344,-0.42054 -0.18385,-0.53441 -2.6e-4,-0.11387 -0.0783,-0.44792 -0.17276,-0.74252 -0.22552,-0.70307 -0.52373,-2.41027 -0.68239,-3.90657 -0.37759,-3.56071 0.15622,-8.92707 1.08548,-10.911538 0.30575,-0.652982 0.69806,-1.31381 0.77939,-1.31381 0.0506,0 0.092,-0.05434 0.092,-0.120721 0,-0.164265 0.71382,-0.76448 1.15621,-0.971846 1.46121,-0.684932 3.13122,0.184005 3.13122,1.629509 0,0.927501 -0.93047,1.634906 -1.75983,1.338056 -0.15008,-0.0537 -0.11565,-0.13213 0.17376,-0.396016 0.44897,-0.409369 0.49332,-1.012998 0.10154,-1.378461 -0.34226,-0.319225 -1.10878,-0.242185 -1.44817,0.145473 -0.2805,0.32036 -0.61979,1.382354 -0.61979,1.940154 0,0.58881 0.33841,1.56643 0.75262,2.17503 0.33057,0.48569 1.05773,1.12288 1.28148,1.12288 0.0497,0 0.17752,0.0663 0.2839,0.14749 0.79734,0.6086 3.59173,0.80081 4.66422,0.32075 0.85539,-0.38288 0.99078,-0.47661 1.776,-1.22794 0.70353,-0.67317 0.92242,-0.98039 1.32896,-1.86792 0.89602,-1.95612 0.74786,-4.127554 -0.42984,-6.299818 -0.12391,-0.228504 -0.22529,-0.467706 -0.22529,-0.531384 0,-0.0076 0.009,-0.01221 0.0242,-0.01415 z m -6.49074,32.764906 c 0.9817,0.0196 2.04752,0.22056 3.16,0.6117 0.60385,0.21229 1.95985,0.92606 1.95985,1.03144 0,0.0484 0.0566,0.0879 0.12579,0.0879 0.37908,0 2.93624,2.50089 2.93624,2.87159 0,0.0598 0.0543,0.17058 0.12073,0.24649 0.56249,0.64341 0.74639,0.8956 0.97889,1.34058 0.14703,0.28137 0.31635,0.58866 0.37583,0.68293 0.0595,0.0942 0.22696,0.40265 0.37226,0.68544 0.14532,0.2828 0.31241,0.60283 0.37127,0.7112 0.5356,0.98643 1.27697,3.89405 1.40118,5.49466 0.043,0.55394 0.099,1.14507 0.12427,1.31381 0.0736,0.49169 -0.1889,3.31381 -0.395,4.24905 -0.26805,1.21623 -0.51922,2.0625 -0.72333,2.43718 -0.097,0.17792 -0.17578,0.36945 -0.17578,0.42582 0,0.14059 -0.81039,1.68578 -1.10519,2.10734 -0.13187,0.18854 -0.27794,0.41945 -0.32431,0.51371 -0.0463,0.0942 -0.11826,0.19739 -0.16011,0.22881 -0.0418,0.0315 -0.20868,0.23719 -0.37076,0.45714 -0.36333,0.49306 -0.77558,0.92941 -1.38855,1.47039 -0.25849,0.22813 -0.61913,0.54945 -0.80162,0.71424 -0.46029,0.41564 -2.11546,1.4714 -2.30689,1.4714 -0.0865,0 -0.15758,0.0417 -0.15758,0.0925 0,0.0507 -0.23443,0.18563 -0.52078,0.29955 -0.28632,0.11389 -0.74074,0.29816 -1.01024,0.40964 -1.74162,0.72044 -4.27062,0.99171 -5.7462,0.61675 h -5.2e-4 c -1.65607,-0.42084 -3.08611,-1.37815 -3.95859,-2.65035 -1.27556,-1.85993 -1.20393,-4.70481 0.15205,-6.04373 0.76872,-0.75905 1.29524,-0.97742 2.39223,-0.99255 0.97463,-0.0135 1.38018,0.13122 1.8558,0.6617 0.28278,0.31541 0.28836,1.23804 0.0101,1.6775 -0.26141,0.41281 -0.45067,0.37041 -0.50156,-0.11213 -0.0304,-0.28858 -0.12774,-0.40749 -0.45057,-0.55108 -0.35268,-0.1569 -0.46793,-0.16168 -0.80263,-0.0324 -0.92834,0.35867 -1.1192,1.6 -0.35056,2.28111 0.95237,0.84391 2.42347,0.70795 3.56865,-0.33034 0.31831,-0.28858 0.58026,-0.57614 0.58241,-0.63898 0.002,-0.0628 0.0942,-0.2686 0.20456,-0.45712 0.30171,-0.51548 0.29419,-2.44429 -0.0126,-3.19942 -0.39786,-0.97908 -1.28355,-2.10551 -2.08108,-2.64681 -0.4012,-0.27231 -0.80141,-0.49501 -0.88901,-0.49501 -0.0876,0 -0.15954,-0.0386 -0.16011,-0.0859 -5.2e-4,-0.0471 -0.34526,-0.18851 -0.76577,-0.3142 -1.0679,-0.31917 -3.78146,-0.32711 -4.68446,-0.0137 -2.56877,0.89173 -4.17319,2.35646 -4.95922,4.52687 -0.48566,1.34098 -0.65084,2.57479 -0.66322,4.96175 -0.007,1.31499 -0.0297,2.30456 -0.0515,2.19928 -0.0218,-0.10528 -0.0911,-0.19145 -0.15356,-0.19145 -0.0625,0 -0.11315,-0.15107 -0.11315,-0.33588 0,-0.18482 -0.051,-0.36522 -0.11315,-0.40106 -0.0622,-0.0359 -0.14987,-0.2319 -0.19497,-0.43541 -0.0451,-0.20353 -0.15758,-0.60117 -0.24952,-0.88396 -0.3677,-1.13082 -0.4839,-1.95375 -0.4839,-3.42773 0,-2.1718 0.369,-3.86958 1.22896,-5.65579 0.0907,-0.18852 0.28593,-0.60005 0.43337,-0.91426 0.14747,-0.31421 0.30209,-0.59693 0.34399,-0.62836 0.079,-0.0592 0.36807,-0.61587 0.61474,-1.18349 0.26137,-0.60146 0.62429,-2.635 0.62482,-3.50097 5.2e-4,-0.98657 -0.3025,-3.30674 -0.55258,-4.22783 -0.25151,-0.92635 -0.31648,-1.25673 -0.24702,-1.25673 0.0771,0 0.84246,1.09042 1.18249,1.68507 0.0808,0.14139 0.19296,0.25711 0.24952,0.25711 0.0566,0 0.10303,0.0573 0.10303,0.12678 0,0.0695 0.16511,0.32112 0.36725,0.55917 0.20211,0.23803 0.3677,0.48529 0.3677,0.54956 0,0.0642 0.0414,0.13413 0.092,0.15508 0.0505,0.0209 0.25107,0.25622 0.44553,0.5233 0.19442,0.26708 0.4009,0.48592 0.45912,0.48592 0.0582,0 0.10608,0.05 0.10608,0.11163 0,0.16359 1.75311,1.74646 2.35939,2.13007 0.28533,0.18055 0.5467,0.35534 0.5804,0.38845 0.0337,0.0331 0.36439,0.20557 0.73495,0.38287 2.74705,1.31438 5.45235,1.46127 7.55099,0.41066 1.33981,-0.67073 2.18307,-1.81077 2.56246,-3.46358 0.19409,-0.84569 0.19386,-0.93985 -0.008,-1.65679 -0.49663,-1.76313 -2.0064,-3.10243 -3.49744,-3.10243 -1.25778,0 -2.03809,1.01498 -1.55527,2.023 0.2361,0.49289 0.58684,0.71152 1.14866,0.71574 0.50868,0.004 0.69411,-0.11125 0.95971,-0.59553 0.1777,-0.32406 0.35338,-0.278 0.47936,0.12578 0.15633,0.50111 0.0104,0.87771 -0.53897,1.39008 -0.47462,0.44272 -0.50831,0.45409 -1.34309,0.45409 -0.83379,0 -2.08362,-0.35531 -2.08362,-0.5925 0,-0.051 -0.0612,-0.093 -0.13637,-0.093 -0.25357,0 -1.28187,-1.11743 -1.69921,-1.8467 -0.39975,-0.69848 -0.41475,-0.77049 -0.42227,-2.03815 -0.008,-1.25068 0.0101,-1.34401 0.35963,-1.94167 0.95035,-1.62494 2.70352,-2.46025 4.86327,-2.41698 z m -62.64257,0.0166 c 0.79748,-0.0104 1.69316,0.0674 2.1917,0.21872 1.01836,0.30901 1.4259,0.52311 2.04017,1.07185 1.51924,1.35716 1.80317,3.38148 0.74857,5.33657 -0.33726,0.62525 -1.5033,1.63291 -2.28614,1.97551 -1.0157,0.44449 -2.06669,0.438 -2.74026,-0.0172 -0.6128,-0.41406 -0.86219,-1.05963 -0.61825,-1.60071 0.12429,-0.27579 0.19337,-0.32534 0.30659,-0.21973 0.0804,0.075 0.14599,0.17753 0.14599,0.22781 0,0.25243 0.52143,0.54856 0.96576,0.54856 0.37306,0 0.55746,-0.0787 0.8572,-0.36469 0.63312,-0.60403 0.50834,-1.54616 -0.28792,-2.17404 -0.17643,-0.13911 -0.47444,-0.19683 -1.02437,-0.19952 -0.68632,-0.003 -0.84998,0.0421 -1.42647,0.39904 -0.77345,0.47887 -1.31741,1.04459 -1.75528,1.82499 -0.28727,0.51203 -0.32079,0.69731 -0.32074,1.78711 3e-5,0.72466 0.0556,1.27892 0.13689,1.37139 0.0751,0.0853 0.19872,0.37342 0.27527,0.64049 0.0766,0.26708 0.19234,0.48592 0.25712,0.48592 0.0648,0 0.1177,0.0527 0.1177,0.11719 0,0.1122 0.53886,0.71595 1.0269,1.15065 0.3194,0.28451 1.35419,0.74432 2.14978,0.95518 1.8175,0.48171 4.80438,-0.0533 6.68421,-1.19713 0.20211,-0.12299 0.43831,-0.25634 0.52482,-0.29599 0.55202,-0.25307 3.21151,-2.71803 3.21151,-2.97665 0,-0.0309 0.23555,-0.34757 0.52381,-0.70414 0.54266,-0.67123 1.47206,-1.97183 1.87197,-2.61954 0.26252,-0.4252 0.49086,-0.49644 0.36571,-0.11416 -0.44167,1.34916 -0.72108,3.87182 -0.64352,5.80784 0.0717,1.79139 0.19231,2.2113 1.16177,4.04699 0.781,1.47886 1.2795,2.71485 1.63608,4.0561 0.37673,1.41713 0.37324,4.65435 -0.007,6.05584 -0.14486,0.53416 -0.31655,1.06022 -0.38136,1.16934 -0.0648,0.10911 -0.12101,0.28923 -0.12479,0.40006 -0.004,0.11082 -0.10846,0.43296 -0.23286,0.71575 -0.22616,0.51416 -0.22621,0.51382 -0.2273,-1.31431 -0.001,-1.84076 -0.21194,-3.6735 -0.55865,-4.85569 -0.29068,-0.99117 -0.74218,-1.98878 -1.02488,-2.26495 -0.085,-0.0831 -0.15458,-0.1935 -0.15458,-0.24549 0,-0.30862 -1.73461,-1.66376 -2.69479,-2.10532 -1.24776,-0.57381 -1.84349,-0.68774 -3.61765,-0.69252 -1.77323,-0.005 -1.88777,0.0165 -3.24183,0.6016 -2.33331,1.00811 -3.85309,3.95924 -3.10395,6.02856 0.39882,1.10161 0.94363,1.67086 2.04372,2.13463 1.32276,0.55764 2.89734,-0.20306 2.89734,-1.39968 0,-0.65465 -0.30026,-1.08814 -0.86376,-1.24562 -0.74672,-0.20869 -1.17209,0.0617 -1.26985,0.80718 -0.03,0.22905 -0.19671,0.18379 -0.4253,-0.11568 -0.48763,-0.63873 -0.23527,-1.7253 0.49298,-2.1235 0.59066,-0.32297 2.07149,-0.30675 2.73723,0.0303 1.11618,0.56512 1.72564,1.45811 2.02197,2.9615 0.1345,0.68236 0.13559,0.97393 0.005,1.65628 -0.17682,0.92624 -0.71855,2.09457 -1.2729,2.7443 -0.76055,0.89139 -2.34868,1.81026 -3.61714,2.09321 -0.93157,0.20781 -2.57375,0.17803 -3.68835,-0.0672 -0.9173,-0.20182 -1.27368,-0.305 -2.0821,-0.60109 -1.51864,-0.55618 -3.36405,-1.72557 -4.72133,-2.99231 -1.4971,-1.39725 -2.5777,-2.91548 -3.29741,-4.63293 -0.1185,-0.28279 -0.27204,-0.64249 -0.34145,-0.7996 -0.14201,-0.3214 -0.27316,-0.82506 -0.74302,-2.85644 -0.20048,-0.86669 -0.19226,-5.22316 0.0116,-6.11292 0.39334,-1.71697 0.55549,-2.33619 0.79202,-3.02817 0.13963,-0.40847 0.29992,-0.79143 0.35661,-0.85112 0.0567,-0.0597 0.10304,-0.17878 0.10304,-0.26469 0,-0.50979 2.07617,-3.87669 2.92918,-4.75011 1.1463,-1.17376 2.48952,-2.24626 2.81298,-2.24626 0.0645,0 0.13567,-0.0453 0.15812,-0.10052 0.0513,-0.12627 1.62139,-0.81519 2.15381,-0.94507 0.21898,-0.0534 0.60504,-0.14727 0.85769,-0.20862 0.30036,-0.0729 0.7434,-0.11096 1.22187,-0.11718 z m -17.1467,22.42467 c 0.0221,0.0132 0.0308,0.06 0.0308,0.14345 0,0.12044 0.0761,0.42641 0.16869,0.67988 0.0927,0.25346 0.26201,0.74392 0.37681,1.08954 0.38374,1.1553 0.68799,1.83663 1.58053,3.54188 0.37826,0.72269 0.88151,1.58858 1.11833,1.92399 0.23681,0.33541 0.43037,0.63408 0.43037,0.66372 0,0.16776 1.5573,1.91361 2.22705,2.4968 0.87631,0.76306 1.56773,1.31381 1.64919,1.31381 0.054,0 0.78677,0.46461 0.90114,0.57128 0.11418,0.10652 1.03797,0.57478 1.71488,0.86931 0.37055,0.16122 0.83009,0.36581 1.02082,0.4546 0.19073,0.0888 0.39357,0.16164 0.45109,0.16164 0.0575,0 0.25044,0.0516 0.42832,0.11466 0.32343,0.1147 0.32348,0.11486 -0.20811,0.61069 -0.29237,0.27271 -0.69644,0.6895 -0.89759,0.92638 -0.38865,0.45769 -0.7169,0.83715 -0.90465,1.04661 -0.32483,0.36239 -1.2263,1.65913 -1.29613,1.86438 -0.0442,0.12981 -0.13164,0.23589 -0.19448,0.23589 -0.0628,0 -0.11415,0.0526 -0.11415,0.11668 0,0.0641 -0.138,0.32016 -0.3066,0.56927 -0.32651,0.48241 -1.30554,2.27028 -1.81641,3.3166 -0.52725,1.07994 -1.0701,2.7657 -1.36027,4.22429 -0.28019,1.40832 -0.59813,5.50374 -0.46319,5.96493 0.0606,0.20708 0.0883,0.80041 0.0616,1.31885 -0.0316,0.614 -0.003,0.94255 0.0808,0.94255 0.074,0 0.12931,0.25139 0.12931,0.58694 0,0.32263 0.0643,0.78699 0.14297,1.03196 0.10908,0.33961 0.10908,0.47712 0,0.57886 -0.10909,0.10174 -0.14297,0.0901 -0.14297,-0.048 0,-0.0996 -0.0822,-0.32815 -0.18284,-0.50815 -0.10063,-0.18001 -0.18344,-0.44016 -0.18386,-0.57786 -2.5e-4,-0.13768 -0.0559,-0.2819 -0.12325,-0.32074 -0.0674,-0.0388 -0.12285,-0.18357 -0.12326,-0.32126 -2.6e-4,-0.13769 -0.0873,-0.40448 -0.19296,-0.593 -0.27139,-0.48409 -0.66372,-1.55159 -0.66372,-1.8058 0,-0.11771 -0.16559,-0.54684 -0.36771,-0.95416 -0.20213,-0.40731 -0.36724,-0.79149 -0.36724,-0.85365 0,-0.0622 -0.16621,-0.5857 -0.36923,-1.16328 -0.20301,-0.57759 -0.45822,-1.33287 -0.56674,-1.67851 -0.10854,-0.34563 -0.2385,-0.70732 -0.28893,-0.80363 -0.0504,-0.0964 -0.13039,-0.35341 -0.1778,-0.57129 -0.0474,-0.21789 -0.15869,-0.60179 -0.2475,-0.85315 -0.1854,-0.52473 -0.45788,-1.41109 -0.73696,-2.3993 -0.1065,-0.37706 -0.24287,-0.83989 -0.30308,-1.02842 -0.0602,-0.18852 -0.22549,-0.80582 -0.36773,-1.3714 -0.14221,-0.56557 -0.31469,-1.1943 -0.38338,-1.39715 -0.0687,-0.20286 -0.17286,-0.61386 -0.23133,-0.91375 -0.0584,-0.29987 -0.16148,-0.75129 -0.22883,-1.00266 -0.14524,-0.54206 -0.42631,-1.85654 -0.63494,-2.97059 -0.0824,-0.4399 -0.17534,-2.26509 -0.2071,-4.05609 -0.0576,-3.24631 0.0357,-4.5076 0.47431,-6.39831 0.0656,-0.28279 0.16792,-0.75985 0.2273,-1.05973 0.11116,-0.56123 0.17149,-0.75594 0.62635,-2.02553 0.44279,-1.23596 0.55084,-1.48675 0.70009,-1.62596 0.0545,-0.0508 0.09,-0.0714 0.11213,-0.0581 z m 97.25418,0.049 c 0.11573,-0.0103 0.51623,0.70758 0.51623,0.95113 0,0.0998 0.0522,0.23025 0.11568,0.28995 0.12155,0.11425 0.16627,0.26495 0.68038,2.27958 0.53549,2.09828 0.56813,2.25077 0.69605,3.25599 0.4628,3.63678 0.1006,8.45631 -0.90619,12.05461 -0.0704,0.25137 -0.2043,0.76552 -0.2975,1.14258 -0.0932,0.37705 -0.25283,0.99382 -0.3551,1.37089 -0.10225,0.37705 -0.23339,0.86554 -0.29146,1.08549 -0.16654,0.6309 -0.58285,2.05452 -0.80162,2.74228 -0.1099,0.34563 -0.24974,0.84426 -0.31114,1.10823 -0.0614,0.26395 -0.16412,0.57233 -0.22782,0.68543 -0.11739,0.20848 -0.67319,1.90329 -0.88394,2.6948 -0.0633,0.23778 -0.16344,0.52053 -0.22225,0.62837 -0.0589,0.10786 -0.315,0.81328 -0.56928,1.56738 -0.25425,0.75411 -0.50097,1.4222 -0.54856,1.48505 -0.0476,0.0628 -0.11744,0.24293 -0.15506,0.40004 -0.1253,0.52307 -1.05861,2.90744 -1.35724,3.48884 0.0322,0.0957 -0.15138,0.25674 -0.0606,0.11719 0.014,-0.0215 0.0401,-0.0772 0.0606,-0.11719 -0.0116,-0.0346 -0.0502,-0.0611 -0.14245,-0.0611 -2.58667,0 0.45018,-3.29809 0.39551,-5.84874 -0.0543,-2.5351 -0.22109,-4.09586 -0.57735,-5.40576 -0.28709,-1.05565 -0.74684,-2.39526 -1.00013,-2.91352 -0.4937,-1.01017 -1.57429,-3.0384 -1.94774,-3.65603 -0.49272,-0.81497 -1.93702,-2.81887 -2.15128,-2.98474 -0.0913,-0.0707 -0.16618,-0.16919 -0.16618,-0.21921 0,-0.0875 -0.40232,-0.53429 -1.37646,-1.52799 -0.25179,-0.25687 -0.4583,-0.49946 -0.45916,-0.53895 -7.7e-4,-0.0395 0.20499,-0.12671 0.45766,-0.19397 0.83713,-0.22288 1.37796,-0.4173 1.37796,-0.49552 0,-0.0424 0.16559,-0.11113 0.36773,-0.15255 0.20211,-0.0414 0.36721,-0.11149 0.36721,-0.15557 0,-0.0441 0.15162,-0.14172 0.3369,-0.2172 0.18528,-0.0755 0.50252,-0.24059 0.70463,-0.36671 0.20214,-0.12613 0.45004,-0.26488 0.5511,-0.30813 0.10106,-0.0432 0.21129,-0.11068 0.24499,-0.15002 0.0337,-0.0393 0.2804,-0.22293 0.54856,-0.40813 1.23755,-0.85472 2.84529,-2.37878 3.15746,-2.99332 0.0718,-0.14139 0.17682,-0.25711 0.23338,-0.25711 0.0566,0 0.10303,-0.0533 0.10303,-0.1187 0,-0.10188 0.42769,-0.73759 0.61221,-0.90971 0.11987,-0.11179 0.96488,-1.65514 1.78256,-3.25599 0.37412,-0.73249 0.96957,-2.36278 1.29007,-3.53228 0.0674,-0.24589 0.15275,-0.49222 0.18941,-0.54754 0.005,-0.008 0.0114,-0.0114 0.0192,-0.0121 z m -31.59101,8.33342 c 0.0699,0.0211 0.27128,0.26596 0.48592,0.59604 0.91472,1.40662 2.6568,3.08558 4.28591,4.13034 0.24612,0.15783 0.466,0.32564 0.48845,0.37277 0.0225,0.0471 0.0865,0.0853 0.14245,0.0853 0.0559,0 0.38113,0.17196 0.72281,0.38187 0.34172,0.2099 1.13206,0.62532 1.75629,0.92335 0.62426,0.29804 1.30062,0.6404 1.50274,0.76071 0.20211,0.12029 0.51887,0.27531 0.70411,0.34448 0.18528,0.0692 0.33693,0.17213 0.33693,0.22883 0,0.0567 0.0572,0.10304 0.1273,0.10304 0.14501,0 0.89268,0.46999 0.95467,0.60007 0.0225,0.0471 0.1187,0.0853 0.21416,0.0853 0.0954,0 0.17377,0.0498 0.17377,0.11062 0,0.0608 0.13159,0.17655 0.29245,0.25711 0.6198,0.31037 2.50838,1.96393 3.68887,3.22971 0.58603,0.62836 1.44667,1.8895 1.35069,1.97905 -0.0252,0.0235 -0.25551,-0.0903 -0.51219,-0.25307 -0.49449,-0.31341 -0.82989,-0.38532 -0.74961,-0.16062 0.067,0.18729 1.44406,0.88531 1.62144,0.82183 0.0794,-0.0284 0.25094,0.14277 0.38084,0.38085 0.12991,0.23808 0.26855,0.45906 0.30812,0.49047 0.20124,0.15979 1.33655,2.5789 1.33655,2.84785 0,0.10513 0.0498,0.23982 0.11061,0.29954 0.11251,0.11035 0.44216,1.19197 0.63594,2.08714 0.0587,0.27127 0.13286,0.53286 0.16467,0.58088 0.0319,0.048 0.14632,0.91955 0.25459,1.93713 0.17927,1.68494 0.17953,2.0004 0.006,3.53277 -0.10483,0.92545 -0.25252,1.88832 -0.32832,2.13969 -0.0759,0.25137 -0.24796,0.81733 -0.38237,1.25723 -0.42528,1.39163 -2.19682,4.51272 -2.56145,4.51272 -0.0575,0 -0.10456,0.0493 -0.10456,0.1091 0,0.10279 -1.18083,1.26228 -1.28553,1.26228 -0.027,0 -0.1997,0.12964 -0.38339,0.28843 -1.3777,1.19097 -4.03512,1.8941 -5.59819,1.481 h -5.2e-4 c -0.73686,-0.19536 -1.91893,-1.00348 -1.91893,-1.3123 0,-0.0628 -0.05,-0.11465 -0.11113,-0.11465 -0.1484,0 -0.50159,-0.98433 -0.50159,-1.39817 0,-0.1812 0.14051,-0.6066 0.31218,-0.94507 0.4172,-0.82264 0.96123,-1.14162 1.92599,-1.12945 1.26962,0.016 1.97053,0.83596 1.71436,2.00532 -0.10869,0.49625 -0.10856,0.49661 -0.31872,0.12527 -0.27737,-0.49012 -0.86821,-0.55153 -1.31329,-0.13638 -0.34713,0.32378 -0.29441,0.58819 0.21113,1.05973 0.4334,0.40426 0.47984,0.41875 1.32442,0.41875 1.04899,0 1.64557,-0.23241 2.41546,-0.94205 0.61629,-0.56806 0.77821,-0.81529 1.09155,-1.66486 0.63758,-1.72852 -0.22616,-3.87386 -1.96338,-4.8769 -0.70852,-0.4091 -1.98256,-0.74296 -2.82662,-0.74051 -1.18667,0.004 -2.87878,0.51125 -3.91214,1.1744 -0.63276,0.40608 -2.33565,1.96278 -2.33565,2.13513 0,0.0638 -0.0519,0.11618 -0.11518,0.11618 -0.0632,0 0.0653,-0.50158 0.28541,-1.11429 0.45313,-1.26131 0.72297,-2.08689 0.98043,-2.99888 0.0976,-0.34563 0.26438,-0.91568 0.37075,-1.26683 0.10638,-0.35116 0.19345,-0.73397 0.19345,-0.85011 0,-0.11615 0.0768,-0.52259 0.17074,-0.90366 0.49891,-2.02504 0.61013,-2.99388 0.61774,-5.37747 0.006,-1.94568 -0.0353,-2.57236 -0.21871,-3.31357 -0.36427,-1.47192 -0.80527,-2.85421 -1.136,-3.55956 -0.0928,-0.19802 -0.16871,-0.39586 -0.16871,-0.43995 0,-0.12778 -1.1506,-2.23657 -1.51029,-2.76804 -0.17993,-0.26583 -0.32731,-0.53163 -0.32731,-0.59049 0,-0.0588 -0.0414,-0.12402 -0.092,-0.14497 -0.13177,-0.0546 -1.01025,-1.41941 -1.01025,-1.5694 0,-0.0691 -0.0446,-0.12526 -0.099,-0.12526 -0.0545,0 -0.19957,-0.21884 -0.32276,-0.48592 -0.1232,-0.26708 -0.32699,-0.70114 -0.45258,-0.96478 -0.12559,-0.26363 -0.22831,-0.52783 -0.22831,-0.58694 0,-0.0591 -0.0822,-0.2544 -0.18287,-0.4344 -0.10063,-0.18 -0.18344,-0.44005 -0.18385,-0.57735 -2.6e-4,-0.1373 -0.0613,-0.39439 -0.13536,-0.57129 -0.15872,-0.37887 -0.48032,-2.79215 -0.39047,-2.93018 0.004,-0.007 0.0117,-0.008 0.0217,-0.005 z m -34.14639,0.0101 c 0.13949,0.0379 0.16156,0.60188 -5.2e-4,1.40422 -0.0571,0.28278 -0.1604,0.804 -0.22932,1.15874 -0.18546,0.95446 -0.79001,2.55263 -1.33401,3.52572 -0.61024,1.09154 -1.04015,1.76031 -1.16227,1.80882 -0.0528,0.0209 -0.096,0.0813 -0.096,0.13385 0,0.0525 -0.33054,0.61781 -0.73495,1.25673 -0.4044,0.63893 -0.76887,1.28584 -0.80971,1.43756 -0.0409,0.15173 -0.12328,0.2763 -0.18336,0.2763 -0.0601,0 -0.10911,0.0751 -0.10911,0.1672 0,0.0922 -0.0889,0.36229 -0.19749,0.60008 -0.42783,0.93746 -0.5088,1.14013 -0.69757,1.74618 -0.69033,2.21629 -0.94187,3.61884 -0.94456,5.26585 -0.004,2.10356 0.50918,5.31834 1.28299,8.0455 0.0891,0.3142 0.25603,0.90532 0.37076,1.31381 0.11472,0.40846 0.28606,0.91145 0.38084,1.11781 0.0948,0.20639 0.17227,0.47057 0.17227,0.58696 0,0.11637 0.0822,0.35844 0.18284,0.53845 0.10066,0.18 0.18344,0.4145 0.18385,0.52077 2.6e-4,0.10626 0.0559,0.22483 0.12326,0.26367 0.0673,0.0388 0.12274,0.14483 0.12274,0.23539 0,0.0905 -0.0554,0.16467 -0.12274,0.16467 -0.0674,0 -0.12225,-0.0579 -0.12225,-0.1283 0,-0.16712 -1.88877,-1.92854 -2.06795,-1.92854 -0.0755,0 -0.13689,-0.0448 -0.13686,-0.10001 0,-0.0552 -0.16562,-0.16437 -0.36773,-0.24246 -0.20214,-0.0781 -0.36773,-0.18724 -0.36773,-0.24245 0,-0.0552 -0.0604,-0.10053 -0.13435,-0.10053 -0.074,0 -0.30848,-0.0717 -0.52079,-0.15961 -0.60418,-0.25021 -1.97073,-0.52582 -2.60792,-0.52582 -0.64386,0 -1.83659,0.26505 -2.49376,0.55411 -0.63761,0.28046 -1.77145,1.38703 -2.07349,2.024 -0.75677,1.5957 -0.43446,3.5318 0.77586,4.66071 0.80239,0.74845 1.38917,0.98751 2.42252,0.98751 0.73851,0 0.93398,-0.043 1.26834,-0.28085 0.67461,-0.47993 0.66016,-1.19678 -0.0288,-1.4411 -0.37373,-0.13253 -0.84662,0.10143 -1.01123,0.50057 -0.0996,0.24157 -0.10841,0.23823 -0.24902,-0.0925 -0.2377,-0.55892 -0.091,-1.24869 0.35407,-1.66385 1.31684,-1.22829 3.5636,-0.20315 3.5636,1.62598 0,1.27231 -1.06727,2.40745 -2.62864,2.79531 -0.73233,0.18191 -1.34585,0.17758 -2.29928,-0.0167 h -5.2e-4 c -0.72556,-0.14778 -2.42099,-0.84672 -2.42104,-0.99811 0,-0.0471 -0.061,-0.0859 -0.13536,-0.0859 -0.1806,0 -1.41695,-0.97149 -1.96339,-1.54263 -0.66623,-0.69636 -1.57647,-1.89065 -1.57647,-2.06895 0,-0.0874 -0.042,-0.15911 -0.0934,-0.15911 -0.0515,0 -0.22218,-0.26965 -0.37934,-0.59958 -0.15716,-0.32992 -0.33709,-0.69187 -0.40006,-0.80414 -0.24047,-0.42878 -0.87264,-2.32903 -0.97588,-2.93372 -0.0594,-0.34783 -0.16156,-0.86382 -0.22681,-1.14661 -0.15954,-0.69142 -0.15954,-4.00113 0,-4.8562 0.0704,-0.37706 0.17597,-0.9784 0.23439,-1.33654 0.0584,-0.35814 0.15991,-0.82098 0.22578,-1.02842 0.38374,-1.20829 0.95174,-2.74561 1.21582,-3.29084 0.1674,-0.34563 0.35343,-0.7315 0.41317,-0.85718 0.0597,-0.12569 0.17628,-0.33093 0.25914,-0.45662 1.25394,-1.90238 1.72734,-2.57105 1.82042,-2.57105 0.0617,0 0.11214,-0.0583 0.11214,-0.12981 0,-0.18799 1.67332,-1.91945 2.64834,-2.74026 0.77341,-0.65109 2.58155,-1.92853 2.72966,-1.92853 0.0738,0 0.13435,-0.0433 0.13435,-0.096 0,-0.0528 0.1237,-0.15659 0.27528,-0.23033 0.1516,-0.0737 0.55114,-0.28856 0.88799,-0.47784 0.33688,-0.18928 0.94345,-0.50027 1.34767,-0.691 0.40422,-0.19074 1.01079,-0.49959 1.34764,-0.68646 0.33688,-0.18688 0.75039,-0.40235 0.91883,-0.47834 0.16841,-0.0759 0.36095,-0.17803 0.42832,-0.22731 0.0674,-0.0493 0.62284,-0.4357 1.23401,-0.85819 1.17954,-0.81539 2.38401,-1.88484 3.18123,-2.82461 0.26653,-0.3142 0.51235,-0.59694 0.54602,-0.62836 0.10604,-0.0989 0.36365,-0.50434 0.4829,-0.7602 0.10569,-0.22681 0.19319,-0.31832 0.2566,-0.30105 z m 49.28473,13.65482 c -0.0501,0.0452 -0.008,0.19991 0.093,0.34399 0.17056,0.24282 0.16267,0.27714 -0.10608,0.46621 -0.39718,0.27945 -0.37105,0.70659 0.0682,1.11631 0.45703,0.4263 0.45465,-0.0434 1.15572,-0.0434 l 0.42884,-0.37732 -0.77436,-0.79354 c -0.42587,-0.4367 -0.81516,-0.75738 -0.86526,-0.71221 z m 0.444,0.889 c 0.27421,0 0.63724,0.48014 0.57887,0.76576 -0.057,0.27891 -0.4995,0.31984 -0.73193,0.0676 -0.32741,-0.35515 -0.37411,-0.49549 -0.22173,-0.66675 0.0814,-0.0915 0.24985,-0.1667 0.37479,-0.1667 z m -1.432,0.72838 c -0.0166,4e-5 -0.0313,0.004 -0.0435,0.0107 -0.10746,0.062 -0.0206,0.2125 0.30005,0.51876 0.49071,0.46874 0.53397,0.83373 0.10557,0.89102 -0.18156,0.0242 -0.37803,-0.10599 -0.65817,-0.43592 -0.28349,-0.33386 -0.43748,-0.43519 -0.53037,-0.34853 -0.093,0.0867 0.0275,0.27243 0.4142,0.63998 0.59558,0.56606 0.95382,0.62684 1.15671,0.19548 0.0665,-0.14139 0.1907,-0.2571 0.27579,-0.2571 0.24933,0 0.17723,-0.13803 -0.38338,-0.73141 -0.29723,-0.31461 -0.52062,-0.48318 -0.63695,-0.48289 z m -1.08347,0.91375 c -0.0548,-8e-5 -0.1105,0.0416 -0.1389,0.11062 -0.0378,0.0921 -0.18155,0.19473 -0.31924,0.22832 -0.22774,0.0555 -0.19735,0.11875 0.33791,0.69706 0.59043,0.6379 0.71697,0.71908 0.83697,0.53795 h -5.2e-4 c 0.0356,-0.0537 -0.0764,-0.22073 -0.24902,-0.37126 -0.45606,-0.39789 -0.56687,-0.63516 -0.41773,-0.89507 0.0852,-0.14855 0.0865,-0.24517 0.004,-0.29297 -0.017,-0.01 -0.0353,-0.0146 -0.0536,-0.0147 z m -32.63308,18.39384 c 0.0557,-0.01 0.17229,0.37426 0.50309,1.55424 0.10572,0.37705 0.32623,1.04565 0.48998,1.48554 0.16373,0.43989 0.32698,0.90275 0.36319,1.02843 0.16438,0.5707 1.73916,3.58642 1.99874,3.82777 0.0338,0.0314 0.13939,0.19845 0.23487,0.37126 0.0955,0.17282 0.21928,0.31419 0.27528,0.31419 0.056,0 0.10205,0.0726 0.10205,0.16163 0,0.0891 0.0414,0.17907 0.0919,0.20003 0.0505,0.0209 0.31022,0.29496 0.57738,0.60917 0.26712,0.3142 0.60966,0.70008 0.7607,0.85718 0.73858,0.76837 0.89126,0.91426 0.9587,0.91426 0.062,0 0.67383,0.56686 0.67383,0.62433 0,0.0233 -0.9257,1.20791 -1.07437,1.37492 -0.0559,0.0628 -0.14106,0.19163 -0.18893,0.2859 -0.0479,0.0942 -0.19606,0.32569 -0.32933,0.51421 -0.13329,0.18853 -0.31044,0.47126 -0.39401,0.62836 -0.0836,0.15711 -0.18061,0.31105 -0.21568,0.34247 -0.0351,0.0314 -0.32925,0.57122 -0.65361,1.19965 -0.32436,0.62842 -0.66903,1.28846 -0.76575,1.46636 -0.0968,0.17792 -0.17578,0.37549 -0.17578,0.43946 0,0.0639 -0.0779,0.27828 -0.17276,0.47631 -0.23884,0.49852 -0.88709,2.33249 -0.99457,2.813 -0.0488,0.21788 -0.13319,0.47495 -0.1874,0.57128 -0.0543,0.0963 -0.15233,0.38105 -0.21822,0.63241 -0.0659,0.25137 -0.21394,0.76552 -0.32882,1.14257 -0.1149,0.37705 -0.25815,0.91411 -0.31823,1.1936 -0.0601,0.2795 -0.15934,0.66537 -0.22073,0.85718 -0.13,0.4061 -0.46107,1.87164 -0.5617,2.48669 -0.0758,0.46274 0.0774,0.32328 -0.30508,0.32328 -0.13035,0 -0.0782,-0.53165 -0.17378,-0.89204 -0.0955,-0.3604 -0.26482,-1.041 -0.37629,-1.51232 -0.39512,-1.6702 -0.57447,-2.34449 -0.66979,-2.5175 -0.0531,-0.0964 -0.13291,-0.35341 -0.17729,-0.57129 -0.094,-0.46136 -0.42859,-1.55084 -0.57786,-1.88156 -0.0567,-0.12569 -0.15406,-0.43408 -0.2167,-0.68544 -0.11931,-0.47876 -0.31401,-1.02253 -0.5723,-1.5997 -0.0844,-0.18853 -0.24755,-0.5739 -0.36318,-0.85669 -0.30168,-0.73786 -1.67968,-3.34281 -1.86286,-3.52167 -0.085,-0.0831 -0.15458,-0.19591 -0.15458,-0.25054 0,-0.12172 -1.29393,-1.91604 -1.59465,-2.21139 -0.20953,-0.20583 -0.17935,-0.24773 0.85314,-1.19966 0.58845,-0.54255 1.35325,-1.3462 1.69972,-1.78609 0.34647,-0.4399 0.68612,-0.8621 0.75466,-0.938 0.0685,-0.0759 0.12423,-0.16155 0.12423,-0.19043 0,-0.0288 0.23747,-0.42972 0.52735,-0.89053 0.2899,-0.46079 0.73288,-1.30031 0.98447,-1.86589 0.25161,-0.56558 0.51046,-1.11781 0.57536,-1.22693 0.0649,-0.10914 0.11818,-0.25539 0.11818,-0.3253 0,-0.0699 0.074,-0.2889 0.16466,-0.48693 0.25053,-0.5475 0.90231,-2.66801 0.97135,-3.1595 0.0107,-0.076 0.0229,-0.12303 0.0414,-0.12628 z m -17.29874,1.16479 c 0.0999,-0.0386 0.24558,0.11849 0.30915,0.42936 0.0409,0.20041 0.1628,0.64742 0.27073,0.99305 0.60796,1.94705 1.0338,4.40713 1.02943,5.94725 -0.003,0.96964 -0.22997,2.27292 -0.55613,3.19334 -0.25806,0.7282 -1.27001,2.66699 -1.42141,2.72309 -0.0565,0.0209 -0.10254,0.0873 -0.10254,0.14749 0,0.12816 -0.50883,0.82531 -0.64301,0.88093 -0.0505,0.0209 -0.0919,0.0848 -0.0919,0.14193 0,0.22088 -1.83312,2.27657 -2.03006,2.27657 -0.0448,0 -0.1382,-0.25711 0.0121,-0.25711 0.15039,0 0.11752,-0.80889 0.14749,-1.48303 0.0565,-1.2712 -0.0533,-1.81514 -0.58189,-2.88724 -0.27727,-0.5624 -1.0274,-1.40938 -1.73356,-1.95682 -0.29169,-0.22613 -0.54884,-0.45682 -0.57129,-0.51269 -0.0225,-0.0558 -0.0936,-0.10153 -0.15809,-0.10153 -0.10146,0 -0.78843,-0.4068 -0.96478,-0.57129 -0.29082,-0.27127 -3.27775,-1.60807 -4.53242,-2.02855 -0.67373,-0.22579 -0.67375,-0.22588 1.22493,-0.21872 2.00484,0.008 3.7428,-0.1514 4.96123,-0.45359 0.67642,-0.16776 1.50636,-0.47522 1.65377,-0.61271 0.0337,-0.0315 0.25415,-0.18171 0.48996,-0.33438 0.64256,-0.41605 0.94013,-0.68754 1.51383,-1.37948 0.83627,-1.00863 1.67094,-2.8295 1.67094,-3.64542 0,-0.17366 0.0436,-0.26726 0.10353,-0.29045 z m 39.55773,0.051 c 0.0483,0 0.15872,0.32147 0.246,0.71423 0.15527,0.69885 0.22066,0.86535 0.74806,1.91389 0.46039,0.91529 0.76344,1.29401 1.70932,2.13614 0.36674,0.32651 0.92472,0.72488 1.24006,0.88497 1.34994,0.68531 3.68041,1.04185 6.60693,1.01074 1.95728,-0.0208 1.95359,-0.0572 0.0611,0.62281 -0.7552,0.27136 -2.7978,1.21235 -2.97917,1.37239 -0.089,0.0786 -0.20845,0.14295 -0.26519,0.14295 -0.27796,0 -2.9418,2.02533 -2.9418,2.23666 0,0.032 -0.10754,0.16547 -0.23891,0.29701 -0.13141,0.13154 -0.32674,0.42545 -0.43441,0.65261 -0.10769,0.22718 -0.24273,0.49404 -0.30004,0.59301 -0.0573,0.099 -0.17261,0.57445 -0.2561,1.05721 -0.14231,0.82284 -0.11958,1.61276 0.0758,2.61903 0.10476,0.53966 -0.12213,0.60775 -0.51019,-0.002 -0.53343,-0.83826 -1.96638,-2.3622 -2.05279,-2.54023 -0.0457,-0.0942 -0.19135,-0.32568 -0.32328,-0.51421 -0.43543,-0.62229 -1.01332,-1.8021 -1.59516,-3.25649 -0.25435,-0.63583 -0.31107,-4.24415 -0.0839,-5.33808 0.10156,-0.48889 0.22039,-1.09476 0.26418,-1.34613 0.0438,-0.25137 0.12677,-0.61106 0.18388,-0.7996 0.0571,-0.18852 0.189,-0.62571 0.29345,-0.97134 0.37653,-1.24578 0.46577,-1.48554 0.5521,-1.48554 z"
         style="fill:#00ff00;fill-opacity:0.608245;stroke:#000000;stroke-width:0.90024;stroke-linecap:round;stroke-linejoin:round;stroke-miterlimit:4;stroke-dasharray:none;stroke-opacity:1;paint-order:stroke fill markers"
         id="path1112" />
    </clipPath>
    <clipPath
       id="clipPath1120"
       clipPathUnits="userSpaceOnUse">
      <path
         id="path1122"
         d="m 347.792,224.35015 -9.78796,-14.21911 -7.89448,0.78299 -5.65913,1.39835 -5.25123,-4.61097 -11.70293,-14.49788 -6.65321,-14.37617 c 0,0 -3.6183,-13.49087 -3.78678,-15.04696 -0.16847,-1.55609 -2.72331,-16.38983 -2.72331,-16.38983 l 2.88355,-8.97525 -6.07501,-8.00357 1.47941,-23.29541 6.4969,-7.01087 13.05204,-13.021291 11.04443,-4.678465 11.58958,-1.812623 c 0,0 5.25918,-6.287414 6.56981,-6.79546 1.31064,-0.508043 8.56398,-2.419057 11.51816,-1.680441 2.95418,0.738613 10.28295,6.140826 11.08223,7.573567 0.79929,1.432738 6.11849,3.93356 6.11849,3.93356 0,0 7.09829,-0.109352 8.38018,0.670462 1.28189,0.779813 4.6823,6.464605 4.6823,6.464605 0,0 7.55821,3.640596 8.58393,3.640596 1.02571,0 9.95845,7.52191 10.42165,8.30602 0.4632,0.78411 5.84371,7.28311 8.29411,11.94436 2.4504,4.66125 2.08009,14.27394 1.71149,16.29914 -0.3686,2.0252 -3.40278,7.47289 -4.79429,9.02816 -1.39152,1.55526 -3.37945,4.77347 -3.9097,7.30151 -0.53025,2.52806 0.17135,6.17524 0.5151,7.21123 0.34375,1.03598 -0.56913,7.93716 -0.56913,8.60515 0,0.668 -2.87369,12.42405 -3.78806,14.38338 -0.91436,1.95934 -3.78805,9.92733 -3.78805,9.92733 l -9.62182,9.23055 -3.04508,3.91673 -3.13374,3.56245 c 0,0 -3.15935,1.68505 -3.64989,2.53548 -0.49054,0.85045 -1.70611,4.82899 -1.70611,4.82899 0,0 -0.75184,1.45891 -1.81939,1.45891 -1.06754,0 -5.01901,-0.79735 -6.3932,-0.96606 -1.3742,-0.1687 -1.25616,-0.1687 -5.46744,-0.1687 -4.21129,0 -7.11017,0.17339 -7.11017,0.17339 0,0 -0.85373,1.34987 -1.61356,3.34744 -0.75983,1.99758 -2.5232,8.38182 -2.5232,8.38182 z"
         style="fill:none;stroke:#000000;stroke-width:0.25862px;stroke-linecap:butt;stroke-linejoin:miter;stroke-opacity:1" />
    </clipPath>
  </defs>
  <sodipodi:namedview
     inkscape:window-maximized="1"
     inkscape:window-y="0"
     inkscape:window-x="0"
     inkscape:window-height="698"
     inkscape:window-width="1366"
     inkscape:snap-global="false"
     inkscape:guide-bbox="true"
     showguides="true"
     showgrid="false"
     inkscape:document-rotation="0"
     inkscape:current-layer="layer2"
     inkscape:document-units="mm"
     inkscape:cy="41.673887"
     inkscape:cx="-48.515177"
     inkscape:zoom="3.959798"
     inkscape:pageshadow="2"
     inkscape:pageopacity="0.0"
     borderopacity="1.0"
     bordercolor="#666666"
     pagecolor="#ffffff"
     id="base" />
  <metadata
     id="metadata5">
    <rdf:RDF>
      <cc:Work
         rdf:about="">
        <dc:format>image/svg+xml</dc:format>
        <dc:type
           rdf:resource="http://purl.org/dc/dcmitype/StillImage" />
        <dc:title></dc:title>
      </cc:Work>
    </rdf:RDF>
  </metadata>
  <g
     transform="translate(-890.38389,-478.19368)"
     inkscape:label="Layer 2"
     id="layer2"
     inkscape:groupmode="layer">
    <path
       id="path15861"
       d="m 890.38522,485.39681 c 0.0115,-0.0364 0.49616,-1.81056 0.49875,-1.82585 0.002,-0.015 -0.005,-0.0326 -0.037,-0.0916 -0.19769,-0.35945 -0.3385,-0.7827 -0.39752,-1.19489 -0.0266,-0.18558 -0.0331,-0.28497 -0.0333,-0.50587 -2e-4,-0.2082 0.004,-0.29256 0.0242,-0.45199 0.12979,-1.03963 0.71101,-1.97025 1.59189,-2.54882 0.40354,-0.26506 0.8628,-0.44798 1.33201,-0.53055 0.1897,-0.0334 0.34098,-0.0479 0.54778,-0.0526 0.48694,-0.011 0.95581,0.0727 1.40372,0.25064 0.12618,0.0501 0.36067,0.16464 0.47607,0.23247 0.88978,0.52302 1.51371,1.39967 1.70845,2.40042 0.0407,0.2089 0.0596,0.3894 0.0646,0.61662 0.005,0.24222 -0.009,0.43707 -0.0494,0.67649 -0.17263,1.02068 -0.79125,1.92563 -1.68498,2.46483 -0.45589,0.27506 -0.95316,0.4391 -1.50541,0.49661 -0.12669,0.0132 -0.50567,0.015 -0.63159,0.003 -0.47873,-0.0455 -0.90196,-0.16504 -1.30806,-0.36943 l -0.10776,-0.0543 -0.92793,0.24401 c -0.51035,0.13421 -0.93696,0.2458 -0.94803,0.24797 -0.0178,0.004 -0.0197,0.002 -0.0166,-0.007 z m 3.79633,-0.66112 c 0.6526,-0.0429 1.26048,-0.29385 1.75996,-0.7266 0.14355,-0.12437 0.3165,-0.31108 0.43298,-0.46742 0.51233,-0.68767 0.70058,-1.56131 0.51869,-2.40712 -0.096,-0.44656 -0.29596,-0.86418 -0.58622,-1.22461 -0.43951,-0.54575 -1.04335,-0.91482 -1.72181,-1.05239 -0.21097,-0.0428 -0.35243,-0.0563 -0.58929,-0.0565 -0.19328,-1.1e-4 -0.25865,0.004 -0.42205,0.0266 -0.42019,0.0582 -0.83966,0.21525 -1.20081,0.44962 -0.32867,0.21328 -0.62648,0.50583 -0.84598,0.83104 -0.27824,0.41224 -0.441,0.8607 -0.49538,1.36495 -0.0131,0.1219 -0.015,0.44075 -0.004,0.55975 0.0491,0.49802 0.19427,0.92026 0.46402,1.34956 0.046,0.0732 0.0501,0.0821 0.0452,0.0988 -0.0359,0.12335 -0.29292,1.07061 -0.291,1.07253 10e-4,10e-4 0.25403,-0.0632 0.56134,-0.14366 l 0.55876,-0.14625 0.0862,0.0505 c 0.39049,0.22881 0.77609,0.35949 1.20777,0.40933 0.15179,0.0175 0.36174,0.0223 0.52094,0.0119 z m 0.63729,-1.25092 c -0.092,-0.008 -0.19809,-0.0327 -0.32609,-0.0752 -0.31017,-0.1029 -0.54004,-0.2034 -0.73892,-0.32306 -0.37653,-0.22656 -0.75576,-0.5768 -1.0726,-0.99062 -0.16103,-0.2103 -0.26781,-0.37138 -0.33781,-0.50954 -0.11036,-0.21784 -0.16118,-0.39176 -0.16862,-0.57703 -0.005,-0.13495 0.0105,-0.25007 0.0519,-0.37483 0.0498,-0.15015 0.12314,-0.26545 0.25384,-0.39927 0.0537,-0.055 0.0948,-0.0828 0.15333,-0.1039 0.0372,-0.0134 0.0453,-0.014 0.18226,-0.0126 0.13951,10e-4 0.14416,0.002 0.17404,0.0164 0.0346,0.0169 0.0601,0.0455 0.086,0.0968 0.01,0.0193 0.0722,0.16708 0.13864,0.32842 0.0665,0.16134 0.13296,0.32028 0.14773,0.35321 0.0217,0.0484 0.0274,0.0685 0.0299,0.10476 0.003,0.0449 0.003,0.0449 -0.0311,0.11193 -0.0351,0.0689 -0.10629,0.16194 -0.20384,0.26626 -0.0525,0.0562 -0.065,0.0804 -0.0614,0.11865 0.004,0.0382 0.0187,0.0673 0.0938,0.18111 0.1669,0.25295 0.32215,0.42569 0.53634,0.59675 0.0905,0.0722 0.23016,0.16551 0.32334,0.21588 0.0809,0.0437 0.30184,0.14572 0.3365,0.15535 0.058,0.0161 0.0958,0.002 0.14545,-0.0516 0.0578,-0.0632 0.18077,-0.21314 0.24087,-0.29367 0.0702,-0.0941 0.0891,-0.11035 0.13242,-0.11394 0.0591,-0.005 0.12626,0.0235 0.58155,0.24556 0.25447,0.12414 0.29113,0.14476 0.30494,0.17146 0.0406,0.0786 -0.0144,0.3848 -0.0895,0.49766 -0.0321,0.0483 -0.10269,0.11897 -0.16689,0.16705 -0.0959,0.0718 -0.24975,0.14902 -0.34594,0.17362 -0.0878,0.0225 -0.26342,0.034 -0.37034,0.0245 z"
       style="fill:#e7676a;fill-opacity:1;stroke-width:0.00598661" />
  </g>
  <g
     transform="translate(-890.38389,-478.19368)"
     id="layer1"
     inkscape:groupmode="layer"
     inkscape:label="Layer 1" />
</svg>
